<?xml version="1.0" encoding="utf-8"?>
<!-- Generator: Adobe Illustrator 28.0.0, SVG Export Plug-In . SVG Version: 6.00 Build 0)  -->
<svg version="1.1" id="Layer_1" xmlns="http://www.w3.org/2000/svg" xmlns:xlink="http://www.w3.org/1999/xlink" x="0px" y="0px"
	 viewBox="0 0 640 512" style="enable-background:new 0 0 640 512;" xml:space="preserve">
<style type="text/css">
	.st0{fill:#FFFFFF;}
</style>
<path class="st0" d="M100.2,306.3c9.3-17.3,6.4-38.6-7.1-52.9c-20.2-21.2-31-46.7-31-73.2C62,120.1,122.6,59,213.8,59
	s151.7,61.1,151.7,121.2S305,301.5,213.8,301.5c-12.4,0-24.5-1.2-35.8-3.4c-9.9-1.9-20.1-0.6-29.1,4c-3.9,2-7.9,3.9-11.9,5.7
	c-15.2,6.8-31.2,12.8-47.3,17.1c2.7-4.4,5.1-8.6,7.5-12.9C98.1,310.1,99.1,308.2,100.2,306.3L100.2,306.3z M16.5,180.2
	c0,39.6,16.3,75.9,43.5,104.5c-0.9,1.6-1.8,3.3-2.7,4.8c-9.8,17.4-21.1,34.6-34.7,49.4c-6.3,6.6-7.9,16.3-4.4,24.5
	c3.7,8.4,11.9,13.8,21,13.8c40.8,0,82-12.6,116.4-28.1c4.6-2.1,9.1-4.3,13.5-6.4c14.3,2.8,29.3,4.3,44.7,4.3
	c109,0,197.3-74.6,197.3-166.7S322.8,13.5,213.8,13.5S16.5,88.1,16.5,180.2z M426.2,468.2c15.4,0,30.3-1.5,44.7-4.3
	c4.4,2.2,8.9,4.4,13.5,6.4c34.3,15.5,75.6,28.1,116.4,28.1c9.1,0,17.3-5.4,20.9-13.7c3.6-8.3,1.9-18-4.4-24.5
	c-13.5-14.8-24.8-31.9-34.7-49.4c-0.9-1.6-1.8-3.2-2.7-4.8c27.3-28.7,43.6-65,43.6-104.6c0-89.4-83.4-162.5-188-166.5
	c3.9,14.4,5.9,29.6,5.9,45.3v0.6c82.7,6.3,136.6,63.9,136.6,120.7c0,26.5-10.8,52-31,73.1c-13.6,14.2-16.4,35.6-7.1,52.9
	c1,1.9,2.1,3.8,3,5.6c2.4,4.3,4.9,8.5,7.5,12.9c-16.1-4.3-32.2-10.1-47.3-17.1c-4.1-1.8-8.1-3.7-11.9-5.7c-9-4.5-19.3-5.9-29.1-4
	c-11.5,2.3-23.4,3.4-35.8,3.4c-58.5,0-104.3-25.1-129.7-59c-15.2,5.1-31.1,8.9-47.4,11.2C281.1,430.1,348.5,468.2,426.2,468.2z"/>
</svg>
