<?xml version="1.0" encoding="utf-8"?>
<!-- Generator: Adobe Illustrator 28.0.0, SVG Export Plug-In . SVG Version: 6.00 Build 0)  -->
<svg version="1.1" id="Layer_1" xmlns="http://www.w3.org/2000/svg" xmlns:xlink="http://www.w3.org/1999/xlink" x="0px" y="0px"
	 viewBox="0 0 640 512" style="enable-background:new 0 0 640 512;" xml:space="preserve">
<style type="text/css">
	.st0{fill:#FFFFFF;}
</style>
<path class="st0" d="M67.7,43c15.9,0,28.7,13.1,28.7,29.3v234.3h200.9V160.1c0-16.2,12.8-29.3,28.7-29.3h200.9
	c47.5,0,86.1,39.4,86.1,87.9v205c0,16.2-12.8,29.3-28.7,29.3s-28.7-13.1-28.7-29.3v-29.3H354.7H326H96.4v29.3
	c0,16.2-12.8,29.3-28.7,29.3S39,439.9,39,423.7V72.3C39,56.1,51.8,43,67.7,43z M196.9,130.9c39.6,0,71.8,32.8,71.8,73.2
	s-32.1,73.2-71.8,73.2s-71.8-32.8-71.8-73.2S157.2,130.9,196.9,130.9z"/>
</svg>
