<?xml version="1.0" encoding="utf-8"?>
<!-- Generator: Adobe Illustrator 28.0.0, SVG Export Plug-In . SVG Version: 6.00 Build 0)  -->
<svg version="1.1" id="Layer_1" xmlns="http://www.w3.org/2000/svg" xmlns:xlink="http://www.w3.org/1999/xlink" x="0px" y="0px"
	 viewBox="0 0 640 512" style="enable-background:new 0 0 640 512;" xml:space="preserve">
<style type="text/css">
	.st0{fill:#FFFFFF;}
</style>
<path class="st0" d="M12,125.6C12,91.6,39.6,64,73.6,64h184.8h46.2H320h246.4c34,0,61.6,27.6,61.6,61.6v246.6
	c0,34-27.6,61.6-61.6,61.6H320h-15.4h-46.2H73.6c-34,0-61.6-27.6-61.6-61.6V125.6z M320,125.6v246.6h246.4V125.6H320z M183.6,171.8
	c-3.1-6.9-10-11.5-17.6-11.5s-14.5,4.5-17.6,11.5L86.8,310.5c-4.3,9.7,0.1,21.1,9.8,25.4s21.1-0.1,25.4-9.8l8.6-19.4h70.8l8.6,19.4
	c4.3,9.7,15.7,14.1,25.4,9.8s14.1-15.7,9.8-25.4L183.6,171.8L183.6,171.8z M166,227l18.3,41.2h-36.6L166,227z M443.2,160.3
	c10.6,0,19.3,8.7,19.3,19.3v3.9h42.4h15.4c10.6,0,19.3,8.7,19.3,19.3s-8.7,19.3-19.3,19.3h-1.9l-1.5,4.3
	c-8.6,23.5-21.6,44.9-38.1,63c0.9,0.6,1.7,1.1,2.6,1.5l18.2,10.9c9.1,5.5,12,17.3,6.6,26.4s-17.3,12-26.4,6.6l-18.2-10.9
	c-4.3-2.6-8.5-5.3-12.6-8.2c-10.2,7.2-21.1,13.5-32.7,18.7l-3.5,1.5c-9.7,4.3-21.1-0.1-25.4-9.8s0.1-21.1,9.8-25.4l3.5-1.5
	c6.2-2.8,12.1-5.9,17.8-9.4L406.8,278c-7.5-7.5-7.5-19.7,0-27.3c7.5-7.5,19.7-7.5,27.2,0l14.1,14.1l0.5,0.5
	c11.9-12.6,21.7-27.3,28.7-43.3h-33.9h-69.3c-10.6,0-19.3-8.7-19.3-19.3s8.7-19.3,19.3-19.3H424v-3.9
	C424,168.9,432.6,160.2,443.2,160.3L443.2,160.3z"/>
</svg>
