<?xml version="1.0" encoding="utf-8"?>
<!-- Generator: Adobe Illustrator 28.0.0, SVG Export Plug-In . SVG Version: 6.00 Build 0)  -->
<svg version="1.1" id="Layer_1" xmlns="http://www.w3.org/2000/svg" xmlns:xlink="http://www.w3.org/1999/xlink" x="0px" y="0px"
	 viewBox="0 0 640 512" style="enable-background:new 0 0 640 512;" xml:space="preserve">
<style type="text/css">
	.st0{fill:#FFFFFF;}
</style>
<path class="st0" d="M198.7,9c-29.4,0-53.8,52.1-53.8,82.1v101.4L14,270.4c-4.7,2.8-7.5,7.7-7.5,13.1v61c0,4.9,2.3,9.3,6.2,12.2
	c3.8,2.9,8.9,3.7,13.5,2.4l118.6-35.3v77.4l-48,38.1c-3.7,2.9-5.8,7.2-5.8,11.9v30.5c0,4.9,2.4,9.5,6.3,12.4s9.1,3.6,13.8,2.1
	l87.5-28.9l86.9,28.7c-1.5-4.5-2.3-9.3-2.3-14.3v-31.1c-17.5-10-29.5-28.3-30.7-49.4l-0.1-0.1v-3.3v-78.6V184.4v-1l0,0V91.1
	C252.5,61.1,229,9,198.7,9z M283.3,176.7v213.5c0,19.9,12.9,36.9,30.8,43.2v40.7c0,12.7,10.3,22.9,23.1,22.9h15.4
	c12.8,0,23.1-10.2,23.1-22.9V436h153.8v38.1c0,12.7,10.3,22.9,23.1,22.9H568c12.8,0,23.1-10.2,23.1-22.9v-40.7
	c17.9-6.3,30.8-23.3,30.8-43.2V176.7c0-25.3-20.7-45.7-46.1-45.7h-246C303.9,131,283.3,151.5,283.3,176.7z M360,251.8
	c3.2-8.3,10.8-14,19.7-14h145.5c8.8,0,16.5,5.7,19.7,14l15.2,47H344.8L360,251.8z M552.3,344.5c12.7,0,23.1,10.2,23.1,22.9
	c0,12.6-10.3,22.9-23.1,22.9s-23.1-10.2-23.1-22.9C529.3,354.7,539.6,344.5,552.3,344.5z M329.4,367.4c0-12.6,10.3-22.9,23.1-22.9
	c12.7,0,23.1,10.2,23.1,22.9c0,12.6-10.3,22.9-23.1,22.9C339.7,390.2,329.4,380,329.4,367.4z"/>
</svg>
