<?xml version="1.0" encoding="utf-8"?>
<!-- Generator: Adobe Illustrator 28.0.0, SVG Export Plug-In . SVG Version: 6.00 Build 0)  -->
<svg version="1.1" id="Layer_1" xmlns="http://www.w3.org/2000/svg" xmlns:xlink="http://www.w3.org/1999/xlink" x="0px" y="0px"
	 viewBox="0 0 500 500" style="enable-background:new 0 0 500 500;" xml:space="preserve">
<style type="text/css">
	.st0{fill:#FFFFFF;stroke:#000000;stroke-miterlimit:10;}
</style>
<path class="st0" d="M160.3,463c-1.6-2-3.6-3.8-4.8-6c-19.9-36.8-33.1-75.8-36.6-117.7c-2.9-34.4,2.4-67.3,19.1-98.1
	c20.6-38.1,30-78.9,28.5-122.2c-0.6-16.7-2.8-33.1-7.5-49.2c-1.4-5,0.1-8.5,4-9.5c3.6-1,6.7,1.2,8.1,6.1c7.1,25,9.2,50.5,7.7,76.3
	c-2.2,38.4-13,74.4-31.5,108.1c-2.3,4.2-4.1,8.7-6.4,13.5c72.8,20.1,145.2,20.1,218.2,0.1c-2.3-4.9-4.3-9.7-6.8-14.2
	c-13.6-24.9-23.2-51.3-27.9-79.3c-5.9-34.8-5.1-69.4,4.2-103.7c0.2-0.8,0.4-1.5,0.7-2.2c1.4-3.6,4.4-5.4,7.6-4.6
	c3.5,0.9,5.3,4.1,4.4,8c-1.6,7.4-3.7,14.8-4.9,22.2c-8.1,50.8-0.6,99.3,22.7,145.1c9.8,19.3,18,38.9,20.8,60.6
	c2.9,22.2,2.1,44.2-1.9,66.2c-6,33.4-17.4,64.9-33.7,94.7c-1.2,2.2-3.2,4-4.8,6C279.9,463,220.1,463,160.3,463z M249.7,381.7
	c4-3.8,7.7-7.6,11.6-10.9c15.7-13.2,34-21.7,53.2-28c16.8-5.5,34-9.6,51-14.5c1.3-0.4,3.4-1.7,3.4-2.7c0.3-5,0.2-10.1,0.2-15.6
	c-4.2,0.7-7.7,1.3-11.2,1.8c-4.6,0.6-7.7-1.4-8.2-5.2c-0.5-3.9,1.9-6.5,6.5-7.3c3.7-0.6,7.4-1.2,11.5-1.9c-1.5-7.2-3-13.9-4.5-21.2
	c-75.7,20.9-150.9,20.9-226.5,0c-1.5,7.4-3,14.2-4.4,21c10.3,1.7,19.7,3.2,29.1,4.8c25.8,4.5,51.8,8.9,78.1,8.8
	c19.6-0.1,39.3-1.7,58.9-2.7c4.3-0.2,7.6,1.8,8.1,5.6c0.4,3.5-2.2,6.4-6.5,6.9c-7.3,0.8-14.6,1.6-21.9,2.2
	c-38.2,2.9-76-0.9-113.5-7.4c-11-1.9-22-3.6-33.8-5.5c0,4.9,0.2,9.3-0.1,13.8c-0.1,2.9,1,4,3.7,4.7c14,3.6,28,6.8,41.7,11.2
	C203.7,348.5,230.3,359.2,249.7,381.7z M132.1,340.3c-0.1,1.4-0.2,1.9-0.1,2.4c0.1,1.2,0.1,2.4,0.3,3.5
	c4.5,35.6,15.7,69.1,32.2,100.9c1.2,2.3,2.5,3.4,5.3,3.3c23.5-0.1,47-0.1,70.4-0.1c1.1,0,2.3-0.1,3.6-0.2c0-17.8,0-35.4-0.1-52.9
	c0-1.4-0.9-3-1.7-4.3c-4.7-7.5-11.2-13.1-18.4-18c-18.2-12.4-38.6-19.9-59.5-26.1C153.6,345.8,143,343.2,132.1,340.3z M368.7,341
	c-1.4,0-1.8-0.1-2.2,0c-27.1,6.2-53.8,13.8-78.5,27c-11,5.9-21.3,13-28.8,23.3c-2,2.7-3,5.6-2.9,9.1c0.2,15.2,0.1,30.4,0.1,45.6
	c0,1.4,0,2.8,0,4.4c1.8,0,3.1,0,4.4,0c23.1,0,46.2-0.1,69.2,0.1c3.2,0,4.6-1.1,5.9-3.7c13.4-25.7,23.1-52.7,28.8-81.1
	C366.4,357.6,367.3,349.4,368.7,341z"/>
<path class="st0" d="M371.8,149.9c8.5,0,16.2,0,23.9,0c1.3,0,2.6-0.1,3.9,0.2c3.4,0.7,5.3,2.8,5.4,6.2c0.1,3.3-2.4,6-5.9,6.1
	c-7.2,0.2-14.4,0.1-21.6,0.1c-1.4,0-2.8,0-5.1,0c1.7,2.5,3.1,4.4,4.3,6.3c2.4,3.7,1.9,7.2-1.2,9.3c-2.9,2-6.5,1.4-8.9-1.9
	c-4-5.4-8-10.7-11.4-16.4c-1.1-1.8-1.2-5.4-0.2-7.2c3.5-6.1,7.6-11.9,11.6-17.7c2.3-3.4,5.9-4,8.9-1.9c3,2.1,3.6,5.5,1.4,9
	C375.5,144.4,373.9,146.8,371.8,149.9z"/>
<path class="st0" d="M127.7,148.6c-1.9-2.8-3.4-4.8-4.7-6.9c-2-3.3-1.4-6.6,1.5-8.7c2.8-2,6.4-1.6,8.7,1.5
	c4.1,5.6,8.3,11.1,11.9,17.1c1.1,1.8,1,5.3-0.1,7.2c-3.4,6-7.5,11.7-11.4,17.4c-2.3,3.3-5.9,4.1-8.9,2.1c-3-2-3.7-5.5-1.6-9
	c1.5-2.4,3.1-4.8,5.1-7.8c-1.8-0.1-3.1-0.3-4.5-0.3c-7.3,0-14.7,0-22-0.1c-3.2,0-5.6-1.5-6.5-4.7c-0.8-2.8,0.2-5.4,2.7-6.7
	c1.6-0.8,3.7-1,5.7-1.1C111.3,148.6,119,148.6,127.7,148.6z"/>
<path class="st0" d="M207.6,197.2c-0.1,5.4-3.5,8.4-7.5,7.4c-5.9-1.6-11.8-3.4-17.6-5.5c-3.2-1.2-4.6-3.9-3.7-7.3
	c0.9-3.3,3.7-5.3,7.2-4.4c6.1,1.6,12.1,3.4,17.9,5.7C205.9,193.8,206.9,196.3,207.6,197.2z"/>
<path class="st0" d="M289,207.4c-5-0.1-7.1-1.8-7.8-5c-0.7-3.3,0.7-6,3.8-6.9c6.1-1.8,12.4-3.4,18.7-4.6c3.1-0.6,5.6,1.3,6.4,4.5
	c0.9,3.2-0.2,6.1-3.3,7.1C300.4,204.6,293.9,206.1,289,207.4z"/>
<path class="st0" d="M231.1,210.3c-3.1-0.4-7.9-0.9-12.7-1.7c-4.4-0.7-6.6-3.3-6.3-7.1c0.4-3.7,3.2-5.8,7.7-5.4
	c4.6,0.4,9.1,1.2,13.6,1.6c5.6,0.5,8.5,2.8,8.3,6.9C241.6,208.7,238.6,210.7,231.1,210.3z"/>
<path class="st0" d="M258.1,211.1c-2.6,0-4.2,0.1-5.7,0c-3.5-0.4-5.8-3-5.7-6.3c0.1-3.5,2.1-5.7,5.5-6.1c5.9-0.5,11.8-0.8,17.6-1
	c3.7-0.1,6.1,2.1,6.5,5.5c0.3,3.4-1.6,6.2-5.1,6.8C266.5,210.6,261.8,210.8,258.1,211.1z"/>
<path class="st0" d="M250.2,245.2c-3.5,0.1-6.3-2.6-6.4-6c-0.1-3.4,2.7-6.3,6.1-6.4c3.4-0.1,6.3,2.7,6.4,6.1
	C256.4,242.3,253.6,245.1,250.2,245.2z"/>
<path class="st0" d="M328.4,316.4c-3.4,0-6.2-2.9-6.2-6.3c0-3.5,2.7-6.2,6.2-6.2c3.5,0,6.2,2.8,6.2,6.2
	C334.7,313.5,331.7,316.5,328.4,316.4z"/>
</svg>
