<?xml version="1.0" encoding="utf-8"?>
<!-- Generator: Adobe Illustrator 28.0.0, SVG Export Plug-In . SVG Version: 6.00 Build 0)  -->
<svg version="1.1" id="Layer_1" xmlns="http://www.w3.org/2000/svg" xmlns:xlink="http://www.w3.org/1999/xlink" x="0px" y="0px"
	 viewBox="0 0 500 500" style="enable-background:new 0 0 500 500;" xml:space="preserve">
<style type="text/css">
	.st0{fill:#FFFFFF;stroke:#000000;stroke-miterlimit:10;}
	.st1{fill:none;stroke:#000000;stroke-miterlimit:10;}
</style>
<path class="st0" d="M58,261.6c1.3-6.8,2.2-13.8,4.1-20.5c9-31.3,28.4-54.1,57.5-68.7c11.9-6,23.9-11.9,35.8-17.9
	c21-10.6,33.9-27.5,37.6-50.8c1.3-7.9,0.8-16.2,1-24.3c0.1-6.7,0-13.5,0-20.5c4,0,7.9,0,12.3,0c0,5.2,0.1,10.4,0,15.6
	c-0.4,11.2,0.2,22.6-1.6,33.5c-4.1,24.3-17.6,42.7-39,54.7c-12.8,7.2-26.1,13.4-39.3,20c-31.9,15.8-50.6,41.2-55.3,76.5
	c-1.9,14.4-0.2,28.6,4.4,42.4c13.9,41.5,27.7,82.9,41.5,124.4c0.9,2.6,2.2,3.1,4.7,3.4c5.5,0.8,8.1-1.6,10.4-6.4
	c7.6-16.3,11.9-33.3,12.6-51.2c0.1-2.8-1.4-3.6-3.3-4.7c-23.9-14.5-39.4-35.2-44.4-62.7c-6.3-35.2,4.2-65.5,29.6-90.6
	c6.3-6.2,13.2-11.8,20.1-17.8c2.8,3.2,5.4,6.1,8.1,9.3c-5.3,4.7-10.5,9.2-15.6,13.7c-21.4,18.7-32.2,42.2-31.6,70.6
	c0.8,39.5,32.5,73.5,71.8,77.5c23.5,2.4,44.1-4.4,62.1-19.4c1.3-1.1,2.1-3.3,2.1-5.1c0.1-39.4,0.1-78.8,0.1-118.3c0-1.5,0-3,0-4.7
	c4.1,0,7.9,0,12.2,0c0,1.4,0,2.8,0,4.3c0,38.7,0.1,77.4-0.1,116c0,4.6,1.4,7.4,5,10.2c42.4,33,103.7,17.5,124.8-31.8
	c13.6-31.9,5.1-70.8-21.1-95.4c-6.3-6-13-11.6-19.7-17.6c2.7-3.1,5.3-6.1,7.9-9c19.8,15.6,37.4,32.5,46,56.9
	c15.5,44-1,90.5-41.1,114.3c-1.8,1.1-2.7,2.1-2.6,4.4c0.7,19.3,5.5,37.4,14.2,54.5c2.6,5,6.7,2.4,10.1,3c3,0.5,2.8-2.3,3.4-4
	c13.7-40.9,27.3-81.7,40.9-122.6c16-48.3-4-96.5-49.5-119.6c-14.9-7.5-30.3-14.3-44.4-23.1c-23.5-14.7-35.4-36.9-36.5-64.7
	c-0.4-11.3-0.1-22.7-0.1-34.1c0-0.8,0.1-1.7,0.1-2.7c4,0,7.9,0,12.1,0c0,3.7-0.1,7.3,0,10.9c0.3,11.6-0.4,23.3,1.3,34.7
	c3.4,23.1,16.7,39.5,37.4,50c12.6,6.4,25.4,12.2,37.7,19c40.6,22.1,60.4,56.6,59.5,102.7c-0.3,14.8-5.2,28.6-9.9,42.4
	c-13.4,39.9-26.7,79.8-40,119.8c-0.4,1.2-0.6,2.4-0.9,3.6c-93.8,0-187.7,0-281.5,0c-0.3-1.2-0.5-2.4-0.9-3.6
	c-11.1-33.3-22.3-66.5-33.3-99.8c-5.2-15.8-10-31.8-14.8-47.7c-1.1-3.7-1.3-7.6-2-11.3C58,273.6,58,267.6,58,261.6z M356.6,429.3
	c-8.5-17.5-13-35.6-14-54.5c-34.5,10.9-65.3,4.8-92.9-17.4c-31.8,23.3-50.9,26.9-92.9,17.5c-1,19-5.6,37.1-14,54.4
	C214.3,429.3,285.2,429.3,356.6,429.3z"/>
<path class="st0" d="M200.2,270.9c-9.5-9.5-19-19-28.6-28.7c2.7-2.5,5.6-5.2,9-8.3c4,4.1,8.3,8.7,12.6,13.2c0.3-0.1,0.5-0.3,0.8-0.4
	c0-27.5,0-54.9,0-82.7c4.2,0,8,0,12.3,0c0,27.6,0,55.1,0,83.7c5.1-5.3,9.4-9.8,13.7-14.2c3.4,3.4,6.1,6.2,8.7,8.8
	C219.3,251.8,209.8,261.3,200.2,270.9z"/>
<path class="st0" d="M305.1,247.5c5.1-5.2,9.4-9.6,13.5-13.8c3.2,3.3,6,6.2,8.4,8.7c-9.1,9-18.6,18.6-28,27.9
	c-9.1-9.1-18.6-18.7-28.2-28.3c2.4-2.3,5.2-5,8.7-8.4c4.1,4.3,8.4,8.8,13.4,14c0-28.5,0-56,0-83.7c4.1,0,7.9,0,12.1,0
	C305.1,191.6,305.1,219.1,305.1,247.5z"/>
<path class="st0" d="M194.1,299.8c0,10.1-8.5,18.6-18.6,18.6c-10.1,0-18.6-8.4-18.6-18.6c0-10.1,8.4-18.6,18.6-18.6
	C185.6,281.2,194,289.7,194.1,299.8z M181.6,299.8c0-3.5-2.7-6.2-6.1-6.1c-3.4,0-5.9,2.5-6,5.9c-0.1,3.5,2.4,6.2,5.9,6.3
	C178.8,305.9,181.6,303.3,181.6,299.8z"/>
<path class="st0" d="M324,318.4c-10.1,0.1-18.6-8.3-18.7-18.4c-0.1-10.1,8.3-18.6,18.4-18.7c10.1-0.1,18.6,8.3,18.7,18.4
	C342.5,309.7,334.2,318.3,324,318.4z M329.9,299.6c-0.1-3.5-2.8-6-6.3-5.9c-3.3,0.1-5.8,2.7-5.8,6.1c0,3.5,2.7,6.1,6.2,6.1
	C327.5,305.8,330,303.2,329.9,299.6z"/>
<path class="st0" d="M354.6,247.3c-4-4-7.7-7.6-11.6-11.5c2.1-2.4,4.7-5.4,7.8-9c4.5,4.4,8.8,8.6,13.4,13.1
	C360.2,242.9,357.1,245.3,354.6,247.3z"/>
<path class="st0" d="M156.5,235.8c-4,4-7.7,7.6-11.6,11.6c-2.6-2.1-5.7-4.5-9.8-7.6c4.6-4.4,8.9-8.5,13.5-12.9
	C151.6,230.3,154.2,233.2,156.5,235.8z"/>
<path class="st0" d="M153.6,346.4c-4.9-3.7-9.3-7.2-13.7-10.6c3.1-3.1,5.9-5.9,8.7-8.8c3.4,2.6,7.1,5.5,11.2,8.7
	C157.9,339,155.9,342.5,153.6,346.4z"/>
<path class="st0" d="M351,326.8c2.8,2.8,5.6,5.6,8.8,8.7c-4.7,3.7-9.3,7.2-14.1,11c-2.3-3.9-4.3-7.3-6.3-10.7
	C343.5,332.6,347.3,329.7,351,326.8z"/>
<path class="st0" d="M283.5,336.1c-2,3.5-3.8,6.8-6.1,10.8c-4.4-3.1-8.6-6.1-13.2-9.3c2.6-3.3,5-6.4,7.6-9.7
	C275.8,330.5,279.5,333.2,283.5,336.1z"/>
<path class="st0" d="M227.4,327.8c2.5,3.1,4.9,6.1,7.7,9.6c-4.3,3.1-8.5,6.2-13.1,9.5c-2.2-3.9-4.1-7.3-6.1-10.8
	C219.7,333.3,223.4,330.6,227.4,327.8z"/>
<path class="st0" d="M128.9,321.6c-2.1-4.7-4-9-6.1-13.6c4.2-1.4,8-2.6,11.7-3.8c1.7,3.7,3.3,7.2,5,11.1
	C136.3,317.3,132.9,319.3,128.9,321.6z"/>
<path class="st0" d="M370.4,321.6c-3.8-2.2-7.1-4.2-10.6-6.2c1.6-3.7,3.2-7.3,5-11.2c3.7,1.2,7.5,2.4,11.8,3.8
	C374.4,312.7,372.5,317,370.4,321.6z"/>
<path class="st0" d="M122.3,267.2c1.7-4.5,3.3-8.8,5-13.5c3.9,1.9,7.4,3.6,11.1,5.4c-1.4,3.9-2.8,7.4-4.2,11.3
	C130.3,269.4,126.5,268.3,122.3,267.2z"/>
<path class="st0" d="M365.2,270.5c-1.5-3.9-2.8-7.4-4.2-11.2c3.5-1.7,7-3.5,11.1-5.5c1.7,4.5,3.3,8.7,5.1,13.4
	C373,268.3,369.2,269.4,365.2,270.5z"/>
<path class="st0" d="M171.1,340.6c3.9,0.8,7.2,1.5,11.1,2.3c-0.4,3.9-0.8,7.8-1.3,12.3c-4.7-1-8.9-1.9-13.5-2.8
	C168.7,348.3,169.9,344.6,171.1,340.6z"/>
<path class="st0" d="M204.6,340.8c1.2,3.8,2.3,7.6,3.6,11.8c-4.7,0.9-8.9,1.8-13.5,2.7c-0.4-4.4-0.8-8.3-1.2-12.3
	C197.3,342.3,200.8,341.6,204.6,340.8z"/>
<path class="st0" d="M305.9,343c-0.4,4.1-0.8,7.9-1.2,12.3c-4.5-0.9-8.7-1.7-13.5-2.6c1.2-4.2,2.3-7.9,3.5-11.9
	C298.4,341.6,301.9,342.3,305.9,343z"/>
<path class="st0" d="M317.1,343c3.9-0.8,7.3-1.5,11.1-2.3c1.2,3.7,2.4,7.4,3.8,11.7c-4.5,1-8.8,1.9-13.5,3
	C318,350.9,317.5,347.1,317.1,343z"/>
<path class="st0" d="M132.1,281.8c0,3.8,0,7.3,0,11.2c-3.8,0.4-7.6,0.8-11.9,1.3c0-4.5,0-8.7,0-13.4
	C124.2,281.2,128.1,281.4,132.1,281.8z"/>
<path class="st0" d="M367.2,281.8c4-0.3,7.8-0.7,11.9-1c0,4.6,0,8.9,0,13.4c-4.2-0.5-7.9-0.9-11.9-1.3
	C367.2,289.3,367.2,285.8,367.2,281.8z"/>
<path class="st1" d="M356.6,429.3c-71.4,0-142.3,0-213.8,0c8.4-17.4,13-35.5,14-54.4c42,9.3,61.1,5.7,92.9-17.5
	c27.6,22.3,58.4,28.4,92.9,17.4C343.6,393.8,348.1,411.9,356.6,429.3z"/>
<path class="st0" d="M181.6,299.8c0,3.5-2.7,6.1-6.2,6c-3.5-0.1-6-2.8-5.9-6.3c0.1-3.3,2.7-5.8,6-5.9
	C178.9,293.7,181.6,296.4,181.6,299.8z"/>
<path class="st0" d="M329.9,299.6c0.1,3.5-2.5,6.2-6,6.3c-3.5,0-6.2-2.6-6.2-6.1c0-3.3,2.5-5.9,5.8-6.1
	C327.1,293.6,329.9,296.1,329.9,299.6z"/>
</svg>
