<?xml version="1.0" encoding="utf-8"?>
<!-- Generator: Adobe Illustrator 28.0.0, SVG Export Plug-In . SVG Version: 6.00 Build 0)  -->
<svg version="1.1" id="Layer_1" xmlns="http://www.w3.org/2000/svg" xmlns:xlink="http://www.w3.org/1999/xlink" x="0px" y="0px"
	 viewBox="0 0 512 512" style="enable-background:new 0 0 512 512;" xml:space="preserve">
<style type="text/css">
	.st0{fill:#5B9AD5;}
</style>
<path class="st0" d="M128,32v32H80c-26.5,0-48,21.5-48,48v48h448v-48c0-26.5-21.5-48-48-48h-48V32c0-17.7-14.3-32-32-32
	s-32,14.3-32,32v32H192V32c0-17.7-14.3-32-32-32S128,14.3,128,32z M480,192H32v272c0,26.5,21.5,48,48,48h352c26.5,0,48-21.5,48-48
	V192z M256,248c13.3,0,24,10.7,24,24v56h56c13.3,0,24,10.7,24,24s-10.7,24-24,24h-56v56c0,13.3-10.7,24-24,24s-24-10.7-24-24v-56
	h-56c-13.3,0-24-10.7-24-24s10.7-24,24-24h56v-56C232,258.7,242.7,248,256,248z"/>
</svg>
