<?xml version="1.0" encoding="utf-8"?>
<!-- Generator: Adobe Illustrator 28.0.0, SVG Export Plug-In . SVG Version: 6.00 Build 0)  -->
<svg version="1.1" id="Layer_1" xmlns="http://www.w3.org/2000/svg" xmlns:xlink="http://www.w3.org/1999/xlink" x="0px" y="0px"
	 viewBox="0 0 500 500" style="enable-background:new 0 0 500 500;" xml:space="preserve">
<style type="text/css">
	.st0{fill:#FFFFFF;stroke:#000000;stroke-miterlimit:10;}
</style>
<path class="st0" d="M62,324.5c3.1-3,6.1-6.3,9.4-9c32.6-26.9,68.6-47.7,108.7-61.2c54.3-18.3,108.1-16.2,161.2,4.8
	c9.7,3.8,19.2,8.4,28.7,12.8c3.9,1.8,5.2,5,3.7,8.1c-1.5,3-4.8,3.7-8.8,1.9c-9.3-4.2-18.7-8.3-28-12.4c-1.2-0.5-2.5-0.9-3.8-1.3
	c23.7,46.6,16.6,87.4-21.6,123.1c44.8-12.7,84.3-35.2,120.6-65.3c-8.1-6.2-15.9-12.2-23.8-18c-6-4.3-12.3-8.2-18.4-12.2
	c-3.8-2.5-4.9-5.4-3.1-8.4c1.9-3.2,5.1-3.6,9.1-1.1c16.5,10.2,32.2,21.4,46.7,34.4c4.5,4,4.6,7,0.2,10.8
	c-42.1,36.1-89.3,62.4-143.9,74.3c-39.8,8.7-79,5.3-117.4-7.3c-43.3-14.2-81.7-37-116.1-66.8c-1.2-1-2.3-2.3-3.4-3.4
	C62,327,62,325.8,62,324.5z M196.3,390.7c-2.4-2.2-4.9-4.3-7.2-6.6c-2.3-2.3-4.5-4.7-6.6-7.2c-0.9-1-1.7-2.2-2.1-3.5
	c-0.7-2.7,0.2-5,2.8-6.3c3.5-1.7,5.8,0.2,8,2.7c20.3,23.3,45.9,33.3,76.4,28.1c31.1-5.4,52.7-23.8,63-53.5
	c10.3-29.6,4.3-56.9-16-80.8c-1.2-1.4-3.1-2.5-4.9-3c-36.8-10.1-73.7-10.1-110.7-0.4c-3.1,0.8-5.4,2.3-7.3,4.7
	c-19.6,24.4-24.3,51.3-14.4,80.9c1.5,4.4,0.5,7.5-3,8.7c-3.4,1.1-6-0.5-7.5-4.7c-6.4-17.5-7.9-35.4-3.1-53.4
	c2.6-9.7,6.8-18.9,10.2-28.2c-35.6,13.2-68.2,32.9-98.1,57.9C112.1,356,151.5,378.5,196.3,390.7z"/>
<path class="st0" d="M62,210.5c1.9-1.4,3.5-3.2,5.6-4c32.4-12.5,64.8-24.8,97.2-37.2c0.8-0.3,1.6-0.6,2.5-0.9c3.4-1,6.2,0.2,7.4,3.2
	c1.1,3-0.1,5.9-3.4,7.2c-6.6,2.7-13.3,5.1-19.9,7.6c-25.1,9.6-50.1,19.1-75.2,28.7c-1.2,0.5-2.7,2.1-2.7,3.1
	c-0.2,18.5-0.1,37-0.1,56.2c2.3-1.1,4.3-2,6.3-2.9c56.5-27.1,113.2-53.7,169.4-81.3c34.9-17.2,69.7-18.9,105.6-4.2
	c14.2,5.8,28.8,10.7,43.2,16c0.9,0.3,1.8,0.6,3,0.4c-2.5-1.8-5-3.6-7.5-5.4c-15.8-11.2-31.4-22.6-47.3-33.7
	c-31.4-22-65.1-26.1-101-12.5c-15.7,6-31.5,12-47.2,17.9c-1.8,0.7-4.2,1.2-5.6,0.5c-1.7-0.9-3.2-3.1-3.6-5c-0.5-2.7,1.5-4.5,4.1-5.5
	c16.4-6.2,32.9-12.5,49.3-18.8c29.8-11.3,59.5-11.3,88.5,1.8c11,5,21.2,12.1,31.2,19.1c26.6,18.6,52.9,37.6,79.4,56.5
	c0.1,0.1,0.2,0.2,0.3,0.2c4.5,3.2,5.6,5.8,3.8,8.9c-1.7,3-4.3,3.5-9.2,1.7c-12.9-4.7-25.8-9.5-38.6-14.2
	c-18.4-6.8-36.7-13.6-55.2-20.2c-28.1-10.1-55.7-8.6-82.6,4.2c-62.4,29.8-124.7,59.7-187,89.6c-5.6,2.7-7.1,2.4-10.6-2
	C62,260.5,62,235.5,62,210.5z"/>
<path class="st0" d="M223.2,100c0,9.2,0,18.4,0,27.7c0,1.1,0.1,2.3-0.2,3.4c-0.8,3-2.8,4.8-6,4.5c-3.3-0.4-5-2.6-5.1-5.9
	c-0.1-8.4,0-16.7,0-25.1c0-1.5,0-3,0-5.4c-2.4,2.3-4.3,4.2-6.2,6c-3.2,3-6.4,3.3-8.9,0.7c-2.3-2.4-2-5.7,0.9-8.6
	c5-5.1,10-10.1,15.1-15.1c3.2-3.2,6.2-3.2,9.4,0c5.1,5,10.1,10,15.1,15.1c3,3.1,3.2,6.5,0.6,8.9c-2.5,2.3-5.6,2.1-8.6-0.9
	c-1.8-1.8-3.4-3.9-5.1-5.9C224,99.4,223.6,99.7,223.2,100z"/>
<path class="st0" d="M279.1,82.7c-1.9,2-3.6,4.1-5.6,6c-2.7,2.6-6.1,2.7-8.3,0.5c-2.3-2.2-2.3-5.7,0.3-8.3
	c5.2-5.4,10.5-10.6,15.9-15.9c3-2.9,5.8-2.9,8.8,0.1c5.3,5.1,10.5,10.3,15.6,15.6c2.8,2.8,2.8,6.3,0.3,8.6c-2.3,2.2-5.6,1.9-8.3-0.7
	c-1.9-1.9-3.7-3.9-5.6-5.9c-0.3,0.1-0.6,0.3-0.9,0.4c0,4.3,0,8.6,0,12.9c0,5.2,0,10.5,0,15.7c0,4.6-2.2,7.3-5.7,7.2
	c-3.4-0.1-5.5-2.7-5.5-7.1c0-8.4,0-16.7,0-25.1c0-1.2,0-2.4,0-3.6C279.8,83,279.5,82.9,279.1,82.7z"/>
<path class="st0" d="M347.3,104.6c-1.9,2.1-3.7,4.3-5.8,6.2c-2.8,2.7-5.9,2.7-8.3,0.2c-2.1-2.2-2.1-5.5,0.3-8
	c5.3-5.5,10.7-10.8,16.1-16.1c2.6-2.6,5.7-2.6,8.3-0.1c5.6,5.4,11,10.8,16.4,16.4c2.4,2.5,2.3,5.8,0,8c-2.3,2.2-5.4,2.2-8-0.3
	c-2-2-3.8-4.2-5.7-6.4c-0.3,0.2-0.6,0.4-0.9,0.5c-0.1,1-0.2,2.1-0.2,3.1c0,8.6,0,17.2,0,25.8c0,4.3-2.3,6.8-5.8,6.7
	c-3.4-0.1-5.4-2.5-5.4-6.7c0-9.6,0-19.2,0-28.8C348,105.1,347.7,104.9,347.3,104.6z"/>
<path class="st0" d="M253.9,361.3c-22.7,0-41.8-17.8-43.4-40.3c-1.6-22.5,14.6-42.8,36.8-46c0.4-0.1,0.7-0.2,1.1-0.2
	c5,0.2,10.1,1.3,14.8,0.3c4.5-0.9,8.3-4.6,12.8-5.9c10.3-3,21,1.7,26.4,10.8c5.4,9.2,4.2,20.7-3.3,28.3c-1.8,1.9-2.1,3.5-1.9,5.9
	C299.5,339.5,279.3,361.3,253.9,361.3z M285.9,315.8c-15.7,1.6-30.1-9.9-27.4-29.4c-9.9-3.1-24.3,3.1-31.3,13.6
	c-7.8,11.7-7.1,27.3,1.7,38.1c9.2,11.2,24.4,15.1,37.6,9.5C279.1,342.2,287.4,328.8,285.9,315.8z M294.5,292.2
	c0-7-5.5-12.6-12.5-12.6c-7,0-12.5,5.6-12.5,12.6c0,6.9,5.4,12.3,12.3,12.4C288.8,304.7,294.4,299.1,294.5,292.2z"/>
</svg>
