<?xml version="1.0" encoding="utf-8"?>
<!-- Generator: Adobe Illustrator 28.0.0, SVG Export Plug-In . SVG Version: 6.00 Build 0)  -->
<svg version="1.1" id="Layer_1" xmlns="http://www.w3.org/2000/svg" xmlns:xlink="http://www.w3.org/1999/xlink" x="0px" y="0px"
	 viewBox="0 0 500 500" style="enable-background:new 0 0 500 500;" xml:space="preserve">
<style type="text/css">
	.st0{fill:#FFFFFF;stroke:#000000;stroke-miterlimit:10;}
</style>
<path class="st0" d="M39.2,324.4c10.7-8.6,21.2-17.5,32-25.9c6-4.6,12.7-8.5,19.1-12.7c3.6-2.3,6.9-1.8,8.8,1.1c2,3,0.9,6.2-2.7,8.7
	c-14.3,9.9-28.6,19.9-43.6,30.3c37.3,30.9,77.3,53.8,123.4,67c-39-36.9-46-78.5-21.5-126.2c-9,3.9-17.7,7.7-26.3,11.5
	c-2.6,1.1-5,2.5-7.6,3.7c-3.6,1.6-6.7,0.7-8.2-2.4c-1.5-3-0.4-6.1,3.1-7.9c25.2-12.9,51.5-22.4,79.4-27.5
	c49.5-9.1,96.6-0.4,142,19.5c33,14.5,63.1,33.7,90.3,57.4c4.1,3.6,4.5,6,1.7,9.8c-22.1,30.5-48,57.2-78.6,79.2
	c-1.1,0.8-2.4,1.6-3.7,1.9c-2.8,0.7-5-0.6-6.2-3.2c-1.3-2.8-0.4-5.2,2-7.1c5.9-4.6,12.1-9,17.8-13.8c8.9-7.6,17.5-15.6,26.2-23.4
	c-0.2-0.3-0.4-0.6-0.6-0.9c-1.1,0.7-2.2,1.3-3.3,2c-32.6,20.4-67.2,35.6-105.1,43.1c-40.2,7.9-79.6,4.2-118.3-8.7
	c-25.4-8.4-49.2-20.1-71.9-34.3c-1.1-0.7-2.1-1.3-3.6-2.3c0.2,0.7,0.2,1,0.4,1.2c25.5,25.9,53.9,47.8,87.5,62.4
	c47.1,20.5,93.2,17.5,138.5-5.6c3.3-1.7,6.5-3.5,9.8-5.2c3.5-1.7,6.7-0.9,8.3,2.1c1.5,2.9,0.7,6-2.6,7.8
	c-21.8,12.3-44.8,21.3-69.8,24.7c-42.1,5.7-80.2-6.1-115.9-27.4c-38.3-22.8-69.9-53.1-96.3-88.9c-1.5-2-3-4.1-4.5-6.2
	C39.2,326.9,39.2,325.6,39.2,324.4z M315.5,267.1c2.9,6.4,6.1,12.2,8.3,18.4c2.2,6.3,4.2,12.9,4.8,19.6c0.8,8.6,0.4,17.3,0.1,25.9
	c-0.1,3.7-3.1,5.8-6.1,5.5c-3.3-0.3-5.3-3-5.1-6.8c0.1-2.2,0.4-4.3,0.5-6.5c1.3-22.9-5.6-42.9-20.7-60.1c-1.3-1.5-3.4-2.8-5.3-3.3
	c-37.8-10.4-75.7-10.4-113.6-0.1c-2,0.6-4.2,1.9-5.6,3.5c-17.3,20-23.7,43.2-19.6,69.3c6.8,42.8,49.4,74.3,92.2,68
	c29-4.3,50.4-19.5,64.1-45.4c2.2-4.1,5.1-5.4,8.3-3.9c3.4,1.6,4.1,4.9,1.9,9.2c-5.8,11.5-13.6,21.5-23.5,29.8
	c-0.7,0.6-1.6,0.9-2.4,1.4c0.3,0.4,0.6,0.7,0.9,1.1c45.4-13.1,85.5-35.9,121.9-66.2C385.9,301,352.7,280.9,315.5,267.1z"/>
<path class="st0" d="M298.2,187.4c9.2,3.7,16.3,8.3,25.1,7.1c5.4-0.7,10.2-2.6,14-6.4c13.1-13,26.1-26.2,39.5-39.7
	c-1.7-1.7-3.5-3.4-5.2-5.3c-2.8-3-2.9-5.9-0.1-8.8c5.5-5.7,11.1-11.3,16.8-16.8c3.1-3,5.8-2.9,9,0.1c1.6,1.6,3,3.4,5.5,6.3
	c2.8-3.3,4.9-6.2,7.4-8.7c3.5-3.7,7.1-7.3,10.8-10.8c2.6-2.5,6-2.3,8.2,0c2.2,2.2,2.3,5.5,0,7.9c-7.5,7.7-15.1,15.2-22.7,22.7
	c-2.5,2.4-5.4,2.3-7.9-0.1c-1.8-1.7-3.4-3.8-5-5.6c-3.4,3.6-6.4,6.7-9.9,10.3c1.3,1.1,3.4,2.6,5.1,4.5c2.6,2.7,2.7,5.8,0.1,8.5
	c-14.9,15-29.6,30.3-45.1,44.7c-10.8,9.9-24,11.1-37.6,5.8c-6.2-2.4-12.2-5.1-18.3-7.8c-5.2-2.3-6-6.5-1.9-10.6
	c35-35,69.9-70,104.9-105c3.2-3.2,6.5-3.5,9-0.9c2.6,2.7,2.2,5.8-1.3,9.3c-32,32-64,64-96,96C301.7,185.4,300.2,186.1,298.2,187.4z"
	/>
<path class="st0" d="M121,253.9c-0.9-0.8-3.2-2-3.8-3.8c-0.6-1.6-0.1-4.6,1.1-5.8c2.7-2.6,5.9-4.9,9.3-6.5c1.5-0.7,4.5-0.2,5.8,1
	c1.3,1.1,1.9,3.8,1.6,5.7C134.7,247.4,125.1,253.9,121,253.9z"/>
<path class="st0" d="M195.7,214.6c-0.5,0.8-1.3,2.9-2.7,3.6c-3.7,1.6-7.6,2.9-11.5,3.7c-2.8,0.6-5.3-1.2-5.5-4
	c-0.1-2,0.8-5.2,2.3-6.1c3.5-1.9,7.5-3,11.5-3.8C193.1,207.4,195.7,210.3,195.7,214.6z"/>
<path class="st0" d="M289.8,222.8c-4.8-1.7-8.7-2.8-12.3-4.5c-2.6-1.2-3.6-4.1-2.2-6.5c1-1.8,3.7-3.8,5.4-3.6
	c3.9,0.5,7.8,2,11.5,3.6c2.7,1.2,3.5,4.1,2.3,6.5C293.5,220.2,291.3,221.4,289.8,222.8z"/>
<path class="st0" d="M219.8,201.7c1.7,0,3.1-0.2,4.5,0c2.9,0.6,4.8,2.7,4.3,5.4c-0.4,2-2.2,4.7-3.9,5.3c-3.4,1.2-7.2,1.4-10.9,1.5
	c-3.1,0-5.3-1.9-5.5-5.2c-0.2-3.3,1.5-5.3,4.7-6C215.3,202.2,217.7,202,219.8,201.7z"/>
<path class="st0" d="M256.2,214c-3.4-0.4-6.6-0.7-9.7-1.3c-3.3-0.6-5-3.2-4.5-6.4c0.5-3.3,2.7-4.9,5.9-4.7c3.3,0.1,6.6,0.6,9.8,1.1
	c3.2,0.6,5,3.4,4.5,6.4C261.7,212.2,259.1,214.2,256.2,214z"/>
<path class="st0" d="M150.4,236.9c-2-1.9-4.4-3.2-4.9-5c-0.5-1.7,0.3-4.8,1.7-5.9c2.9-2.3,6.4-4.2,10-5.3c1.8-0.5,4.7,0.8,6.2,2.2
	c1.9,1.8,1.8,4.9-0.2,6.5C159.4,232.1,155.2,234.1,150.4,236.9z"/>
<path class="st0" d="M311.7,219.3c4.6,2.8,9,5.1,12.8,8.1c1,0.8,0.9,4.4,0,5.8c-0.9,1.5-3.9,3-5.3,2.5c-4.1-1.5-8.1-3.6-11.6-6.1
	c-1.2-0.8-1.4-4.1-0.8-5.8C307.4,222.1,309.6,221.1,311.7,219.3z"/>
<path class="st0" d="M353.6,247.6c0.1,4.4-4.1,7.6-7.6,5.8c-3.5-1.8-6.8-4-9.5-6.8c-1.2-1.2-1.4-4.6-0.5-6.2
	c0.9-1.5,4.3-3.3,5.4-2.7c4.1,2.1,7.7,5.1,11.4,7.8C353.5,246,353.5,247.2,353.6,247.6z"/>
<path class="st0" d="M236.7,273.7c5.4,2,10.9-0.4,17-3.8c9.9-5.6,22.7-1.8,29.6,7.5c6.9,9.4,6.1,22.3-2,30.9
	c-1.6,1.7-2.3,3.1-2.1,5.6c2.5,23.1-14.9,45.1-37.6,48c-24.6,3.1-46.6-12.9-50.3-36.7C187.1,297.8,207.8,273.6,236.7,273.7z
	 M239.6,285.7c-12.9-2.5-27,4.5-33.5,16.7c-6.8,12.7-4.6,28.2,5.5,38.5c10.1,10.3,25.6,12.9,38.4,6.4c11.9-6.1,19.6-19.8,17.6-31.2
	C246.1,314.2,240.1,307.6,239.6,285.7z M276.4,291.7c0-7.1-5.7-12.8-12.9-12.7c-7,0.1-12.5,5.5-12.6,12.6
	c-0.1,7.2,5.5,12.9,12.6,12.9C270.7,304.5,276.4,298.8,276.4,291.7z"/>
</svg>
