<?xml version="1.0" encoding="utf-8"?>
<!-- Generator: Adobe Illustrator 28.0.0, SVG Export Plug-In . SVG Version: 6.00 Build 0)  -->
<svg version="1.1" id="Layer_1" xmlns="http://www.w3.org/2000/svg" xmlns:xlink="http://www.w3.org/1999/xlink" x="0px" y="0px"
	 viewBox="0 0 500 500" style="enable-background:new 0 0 500 500;" xml:space="preserve">
<style type="text/css">
	.st0{fill:#FFFFFF;stroke:#000000;stroke-miterlimit:10;}
</style>
<path class="st0" d="M193.5,449.8c0-12.6,0.1-25.2-0.1-37.8c0-1.6-1-3.8-2.2-4.8c-33.5-27.8-52.9-63.5-59.5-106.4
	c-0.3-1.8-1.5-3.9-2.9-5c-14.7-11-22.9-25.5-23.1-43.9c-0.4-26.4-0.6-52.8,0-79.2c1.5-62.4,48-113.7,109.8-121.5
	c9.6-1.2,19.5-1,29.2-1c14.2,0,28.5-0.7,42.5,0.9c44.1,5.2,76.6,27.9,97.8,66.8c0.2,0.3,0.3,0.7,0.5,1.3c-3.3,1.7-6.6,3.4-10.1,5.1
	c-1-1.8-1.9-3.4-2.8-4.9c-22.1-37-54.8-56.2-97.8-57.6c-10.8-0.4-21.6-0.2-32.4,0c-1.7,0-3.8,0.8-5.1,2c-10.7,9.5-10.2,24,1.2,32.6
	c1.4,1.1,3.9,1.1,5.8,1c20.7-1,40.7,1.7,59.9,9.5c32.2,13.2,52.7,36.9,62.6,70.1c4.5,15,7.6,30.2,8.1,45.9c0,1,0.2,2,0.4,3.2
	c3.9,0,7.6,0,11.3,0c0-23.2,0-46.2,0-69.7c1.2-0.2,3.1-0.7,5-1c1.8-0.3,3.5-0.5,5.8-0.9c0.5,4.6,1.3,8.9,1.3,13.3
	c0.1,28.7,0.5,57.5,0,86.2c-0.3,17-8.5,30.5-22.1,40.7c-2.2,1.7-3.5,3.3-3.9,6.2c-6.3,42.8-26,78.2-59.4,105.8
	c-1,0.8-2.1,2.3-2.1,3.4c-0.1,13.1,0.1,26.2,0.2,39.4c-3.9,0-7.8,0-11.7,0c0-10.6,0-21.2,0-32.6c-1.9,1-2.9,1.5-3.9,2.1
	c-12.7,7.7-26.3,13.5-40.7,17.2c-1.8,0.5-3.9,0.5-5.6,0c-14.3-3.6-27.8-9.3-40.4-17c-1.1-0.7-2.3-1.3-3.9-2.1c0,11.3,0,21.8,0,32.3
	C201.3,449.8,197.4,449.8,193.5,449.8z M236.1,181c-1.6,1.3-2.9,2.5-4.4,3.5c-11.4,8.3-24.2,12.2-38.3,12.4
	c-14.1,0.2-26.1,5.3-36.1,15.1c-5,4.9-10,9.9-14.9,14.9c-1,1-1.8,2.6-1.9,4c-0.3,26.3-1.1,52.6,4.6,78.5
	c12.8,57.7,47,96.6,103.7,114.9c2,0.7,4.7,0.7,6.7,0c57.7-19.1,92.1-58.9,104-118.2c5.2-26.1,4.4-52.5,3.4-78.9
	c-0.1-3.7-1.3-7.7-3-11c-17.7-34-44.9-56.7-81.5-67.8c-6.9-2.1-14.1-3.2-21.2-4.7c-2.3,10.7-5.8,19.8-12.3,27.8
	c-3.2-2.4-6.1-4.6-9.2-7c10.1-13.1,10.3-28.4,10.7-43.4c4.1,0,7.7,0,11.8,0c0,3.9,0,7.6,0,11.3c20.2,2.5,38.7,8.6,55.9,18.5
	c17.2,9.9,31.6,23,43.9,39.2c0.1-1,0.2-1.4,0.1-1.8c-6.5-25.2-19-46.3-41.3-60.7c-25.7-16.6-54-21.6-84-17.4
	c-21.3,3-40.5,11-56.6,25.7c-16.6,15.1-25.7,34.3-31,55.7c-1.5,6-2.4,12.2-3.6,18.6c1-0.2,1.2-0.2,1.3-0.2c0.4-0.3,0.8-0.7,1.2-1
	c13.7-14.6,30.3-23.1,50.6-24.5c12.1-0.9,24-3.3,33.6-12c0.7,0.7,1.3,1.1,1.8,1.7C232,176.2,234,178.4,236.1,181z M128.4,226.4
	c4.3-63.4,29.9-110.1,95.6-126.9c-8.3-11.7-8.8-23.9-1.8-37.1c-3.5,0.4-6.3,0.7-9.1,1.1c-44.4,6.2-83.5,42.5-92.9,86.6
	c-5.4,25.1-2.4,50.5-2.8,75.8c0,0.1,0.2,0.2,0.4,0.5C121.2,226.4,124.8,226.4,128.4,226.4z M128.9,280c0-14,0-27.8,0-41.5
	c-4.2,0-7.8,0-11.3,0C115.4,256.1,119.7,271.4,128.9,280z M375.3,280.7c11.4-12.4,12.1-27.1,11.8-42.2c-4,0-7.7,0-11.8,0
	C375.3,252.4,375.3,266.1,375.3,280.7z"/>
<path class="st0" d="M112,390.1c-4.2,0-7.8,0-11.6,0c0-11.6,0-22.9,0-34.6c11.5,0,22.9,0,34.5,0c0,3.7,0,7.3,0,11.4c-4.6,0-9,0-14,0
	c6.9,6.8,13.3,13.1,20,19.6c-3.4,3.1-6.2,5.6-9.4,8.5c-5.9-6.1-12.3-12.7-18.6-19.3c-0.3,0.1-0.6,0.3-0.9,0.4
	C112,380.7,112,385.2,112,390.1z"/>
<path class="st0" d="M393.8,390.1c0-5,0-9.5,0-14.5c-6.9,7-13.2,13.4-19.4,19.7c-3.2-3.2-5.8-5.8-8.4-8.4
	c6.1-6.1,12.5-12.4,18.9-18.8c-0.2-0.4-0.3-0.8-0.5-1.2c-4.5,0-9,0-13.7,0c0-4.2,0-7.8,0-11.9c3.4,0,6.6,0,9.7,0
	c7.3,0,14.6,0,21.8,0c2.1,0,3.4,0.3,3.3,2.9c-0.1,9.7-0.1,19.5,0,29.2c0,2.2-0.8,3-3,2.9C399.9,390,397.2,390.1,393.8,390.1z"/>
<path class="st0" d="M257,74.4c0,3.8,0,7.3,0,11.1c-3.8,0-7.4,0-11.4,0c0-3.7,0-7.2,0-11.1C249.4,74.4,253.2,74.4,257,74.4z"/>
<path class="st0" d="M394.6,142.3c-3.9,1.1-7.3,2.1-11.2,3.2c-1.2-3.4-2.3-6.8-3.6-10.6c3.5-1.4,7-2.7,10.9-4.2
	C392,134.6,393.2,138.3,394.6,142.3z"/>
<path class="st0" d="M175.9,167.6c0-3.9,0-7.3,0-11.1c3.8,0,7.5,0,11.3,0c0,3.7,0,7.2,0,11.1C183.5,167.6,179.9,167.6,175.9,167.6z"
	/>
<path class="st0" d="M199.4,167.4c0-3.6,0-7.1,0-11c3.8,0,7.4,0,11.3,0c0,3.6,0,7,0,11C207.2,167.4,203.6,167.4,199.4,167.4z"/>
</svg>
