<?xml version="1.0" encoding="utf-8"?>
<!-- Generator: Adobe Illustrator 28.0.0, SVG Export Plug-In . SVG Version: 6.00 Build 0)  -->
<svg version="1.1" id="Layer_1" xmlns="http://www.w3.org/2000/svg" xmlns:xlink="http://www.w3.org/1999/xlink" x="0px" y="0px"
	 viewBox="0 0 576 512" style="enable-background:new 0 0 576 512;" xml:space="preserve">
<style type="text/css">
	.st0{fill:#5B9AD5;}
</style>
<path class="st0" d="M0,64C0,28.7,28.7,0,64,0h160v128c0,17.7,14.3,32,32,32h128v125.7l-86.8,86.8c-10.3,10.3-17.5,23.1-21,37.2
	l-18.7,74.9c-2.3,9.2-1.8,18.8,1.3,27.5H64c-35.3,0-64-28.7-64-64V64z M384,128H256V0L384,128z M549.8,235.7l14.4,14.4
	c15.6,15.6,15.6,40.9,0,56.6l-29.4,29.4l-71-71l29.4-29.4C508.8,220.1,534.1,220.1,549.8,235.7L549.8,235.7z M311.9,417l129.2-129.2
	l71,71L382.9,487.9c-4.1,4.1-9.2,7-14.9,8.4l-60.1,15c-5.5,1.4-11.2-0.2-15.2-4.2s-5.6-9.7-4.2-15.2l15-60.1
	c1.4-5.6,4.3-10.8,8.4-14.9L311.9,417z"/>
</svg>
