<?xml version="1.0" encoding="utf-8"?>
<!-- Generator: Adobe Illustrator 28.0.0, SVG Export Plug-In . SVG Version: 6.00 Build 0)  -->
<svg version="1.1" id="Layer_1" xmlns="http://www.w3.org/2000/svg" xmlns:xlink="http://www.w3.org/1999/xlink" x="0px" y="0px"
	 viewBox="0 0 500 500" style="enable-background:new 0 0 500 500;" xml:space="preserve">
<style type="text/css">
	.st0{fill:#FFFFFF;stroke:#000000;stroke-miterlimit:10;}
</style>
<path class="st0" d="M402.3,74.9c5.8,4.7,5.2,9.1-1.7,12.3c-12.7,5.9-25.4,11.7-38.1,17.5c-2.2,1-3.5,2.1-3.5,4.9
	c0,1.8-1,3.8-1.9,5.5c-4.3,8.6-8.8,17.2-13,25.9c-1.6,3.2-3.8,5.3-7.1,6.8c-35.4,16.2-70.7,32.6-106,48.9c-1.2,0.5-2.3,1.1-3.7,1.8
	c1.2,2.3,2.2,4.3,3.5,6.7c7.1-3.6,14.5-4.6,22-1.7c7.3,2.8,12.4,8,15,14.7c5.1-0.9,9.8-2.4,14.4-2.3c16.7,0.2,29,16.6,23.8,32.4
	c-5.7,17.5-12.5,34.6-18.8,51.9c-7.9,21.4-15.8,42.9-23.7,64.3c-3.1,8.5-7.9,15.8-13.5,22.8c-4.3,5.5-8.2,11.6-10.8,17.9
	c-5.5,13.1-10.1,26.6-14.9,40c-0.5,1.4-0.3,3.6,0.6,4.8c4.2,5.9,4.2,13.7-0.4,20.1c-3.9,5.5-10.4,7.4-17.5,4.8
	c-22.2-8.1-44.4-16.3-66.5-24.5c-18.1-6.7-36.3-13.4-54.4-20.1c-6.7-2.5-10.4-7.5-10.5-13.7c-0.1-6.7,4.5-14.8,10.5-15.9
	c5.6-1.1,6.5-4.6,8.2-8.7c4.8-11.3,4.9-22.5,1.5-34.4c-5.2-18.2-9.8-36.6-13.9-55c-1.7-7.6-1.8-15.6-2.4-23.4
	c-0.3-3.9,1.7-6.4,5-6.8c3.5-0.4,6.1,1.6,6.6,5.7c0.9,7.6,0.8,15.5,2.5,23c4.2,18.4,8.8,36.8,14,55c3.8,13.4,3.3,26.3-2,39.1
	c-1,2.4-1.8,4.9-2.8,7.8c36.5,13.4,72.8,26.8,109.4,40.4c2.1-5.6,4-11,6-16.3c4.2-11,8.2-22,12.8-32.8c1.7-4.1,4.2-8.3,7.3-11.5
	c7.7-7.8,12.2-17.2,15.9-27.2c13.2-35.9,26.5-71.8,39.7-107.7c4.1-11.2-3.1-21.4-14.3-20.2c-6.1,0.6-9.9,4.3-12,9.9
	c-3.5,9.3-6.9,18.6-10.3,27.9c-0.4,1-0.6,2-1.1,2.9c-1.6,3.4-4.6,4.8-7.7,3.6c-3-1.2-4.4-4.3-3.2-7.8c3.7-10.5,7.7-20.8,11.3-31.3
	c3.3-9.4-2.2-18.2-11.9-19.2c-6.6-0.7-12.1,3.1-14.8,10.3c-3,7.8-5.8,15.7-8.7,23.5c-0.7,1.8-1.3,3.7-2,5.5c-1.8,4.6-4.7,6.4-8.2,5
	c-3.5-1.4-4.5-4.5-2.8-9.3c3.6-9.9,7.4-19.8,10.9-29.8c3.7-10.6-4.3-20.5-15.1-19.1c-6.1,0.8-9.7,4.7-11.7,10.2
	c-3.4,9.2-6.8,18.4-10.2,27.6c-2.2,6-4.9,8-8.8,6.5c-3.6-1.4-4.4-4.7-2.3-10.4c9.4-25.5,18.9-50.9,28.1-76.5
	c1.3-3.5,1.9-7.7,1.4-11.4c-0.9-5.9-6.4-10-12.2-10.5c-6.4-0.5-12,2.8-14.5,9.2c-3.9,10-7.5,20.1-11.2,30.1
	c-8,21.8-16,43.6-24.1,65.4c-0.3,0.9-0.6,1.7-1,2.6c-2,4.6-5.6,7.2-9.9,7c-4.7-0.2-7.8-2.7-9.4-7c-2.9-7.8-5.7-15.7-8.5-23.6
	c-1.3-3.4-2.4-6.9-4-10.2c-2.5-5-8-7.6-12.7-6.2c-5.2,1.5-8.7,7.2-8.1,12.7c1.2,11.2,2.3,22.4,3.3,33.6c0.4,4.1-1.9,7.1-5.3,7.3
	c-3.4,0.3-5.9-2-6.3-6c-1.3-12.1-2.6-24.2-3.6-36.3c-0.9-10.7,9.3-22.4,20.2-23.3c2.5-0.2,4-1,5.4-3c3.3-4.6,13.2-8.3,17.9-6.2
	c3.3,1.4,6,4.2,9.7,6.9c6.8-3.1,14.7-6.8,22.9-10.6c-2.2-4.8-4.2-9.2-6.3-13.7c-3.8-8.5-1.6-14.8,7-18.5c3.1-1.4,6.7-1.6,10-2.6
	c1.2-0.4,2.4-1.6,3-2.8c5.2-11.2,14.4-17.2,25.9-16.6c5.9,0.3,11.3,2.4,15.6,6.5c1.8,1.7,3.1,1.9,5.4,0.9
	c10.4-4.9,20.8-9.7,31.3-14.4c1.7-0.8,4-1.6,5.5-1c1.7,0.7,4,2.9,4,4.5c0.1,2-1.3,4.9-2.9,6c-3.4,2.3-7.5,3.7-11.2,5.5
	c-7.3,3.4-14.7,6.8-22.4,10.4c6.3,13.6,12.4,27,18.7,40.6c3.6-1.6,7-3.2,9.9-4.5c-0.3-3.5-0.8-6.6-0.7-9.7c0.1-1,1.7-2.3,3-2.8
	c3.5-1.5,5.6,0.1,9.6,7c3.5-1.6,7-3.2,10-4.6c-0.4-3.4-1.1-6.4-1-9.4c0-1,1.7-2.3,2.9-3c3.5-1.8,5.7-0.2,9.9,6.9
	c3.5-1.6,6.9-3.2,10.6-4.9c-1.6-4.4-4.6-9.1,1.1-11.9c6.1-3,7.6,2.9,10,6.7c3.6-1.6,7-3.2,9.8-4.5c-0.3-3.5-0.8-6.6-0.6-9.7
	c0.1-1,1.8-2.2,3-2.8c3.4-1.5,5.2-0.1,9.6,6.9c3-1.3,6-2.7,9.6-4.3c-6.2-13.5-12.4-26.9-18.7-40.6c-1.5,0.6-2.8,1.1-4,1.7
	c-10.6,4.9-21.1,9.7-31.7,14.6c-1.2,0.5-2.4,1.1-3.6,1.4c-2.9,0.6-5.2-0.5-6.4-3.2c-1.2-2.7-0.6-5.2,1.9-7c0.9-0.7,2-1.2,3.1-1.7
	c13-6,26-12.2,39.2-17.9c2.4-1.1,5.6-1.3,8.2-0.7c9.6,2,19.1,4.4,28.6,6.7c1.6,0.4,3.6,0.6,4.8,1.7c3.1,2.9,5.8,1.6,8.8,0.2
	c12.9-6.2,25.9-12.2,38.9-18.3C399.7,74.9,401,74.9,402.3,74.9z M91.2,411.1c-0.7,0.5-1.9,1-2.6,1.9c-2.3,3.4-1.5,5.2,2.6,6.7
	c17.9,6.6,35.8,13.2,53.7,19.8c21.7,8,43.4,16,65,24c3.8,1.4,5.3,0.6,6.1-3.3c0.8-3.3-1.7-3.7-3.7-4.4c-39.3-14.5-78.6-29-118-43.5
	C93.6,411.9,92.7,411.6,91.2,411.1z M324.1,98.3c4.6,10,8.9,19.3,13.5,29.2c3.4-6.7,6.7-12.7,9.4-19c0.5-1.2-1.2-4.8-2.5-5.2
	C338.1,101.3,331.4,100,324.1,98.3z M210.5,162.4c-3.6,5.3-3.5,10.1-0.4,15c1.6,2.5,2.6,5.4,3.8,8.1c2.5,5.4,2.5,5.4,8.1,1.7
	C218.2,179.1,214.4,170.9,210.5,162.4z M109.2,194.4c10.4,9,11.2,22.4,16.8,33.7c1.1-0.6,2-1.1,3.1-1.8
	c-5.2-11.4-10.3-22.4-15.5-33.6C112,193.2,110.8,193.7,109.2,194.4z M134.2,209.4c7-3.2,5.9-10.1,8.1-15.4
	c-4.1,1.9-8.2,3.8-12.5,5.8C131.3,203.1,132.6,206,134.2,209.4z"/>
</svg>
