<?xml version="1.0" encoding="utf-8"?>
<!-- Generator: Adobe Illustrator 28.0.0, SVG Export Plug-In . SVG Version: 6.00 Build 0)  -->
<svg version="1.1" id="Layer_1" xmlns="http://www.w3.org/2000/svg" xmlns:xlink="http://www.w3.org/1999/xlink" x="0px" y="0px"
	 viewBox="0 0 500 500" style="enable-background:new 0 0 500 500;" xml:space="preserve">
<style type="text/css">
	.st0{fill:#FFFFFF;stroke:#000000;stroke-miterlimit:10;}
</style>
<path class="st0" d="M274.8,434.4c-3.9-1.1-7.4-2.1-11.4-3.3c3.4-12.1,6.8-24,9.9-35c-13.5-8.8-27-17-39.7-26.2
	c-12.9-9.4-23.3-21.2-31.5-35.7c3.4-1.9,6.7-3.7,10-5.6c3.3,4.6,6.3,9.2,9.7,13.4c14.6,17.9,33.4,30.4,53.8,40.6
	c26,13,53.4,22.2,81.9,28.1c5.1,1.1,10.4,1.4,15.6,1.2c15.8-0.6,25.2-14.8,20.1-29.7c-0.2-0.6-0.4-1.2-0.7-1.7
	c-5-9-5.5-18.2-0.2-27.5c-8.3-5.5-16.5-10.8-24.3-16.4c-1.7-1.2-3.3-3.9-3.1-5.7c0.3-2,2.7-3.7,4.2-5.5c0.1-0.1,0.2-0.1,0.3-0.1
	c7-2.8,14-5.7,21.1-8.4c2.5-0.9,3.8-2.3,4.5-4.9c1.8-6.7,4-13.3,5.9-20c1.4-4.8,4.3-8,8.8-10c13.9-6.1,16.4-18.5,6.1-29.5
	c-8.1-8.6-16.4-17-24.1-25.9c-3.4-4-6.1-8.8-8.5-13.5c-5.7-11.4-4.7-22.5,2.1-33.3c2.4-3.8,4.7-8,6.1-12.2
	c1.9-5.9,0.2-11.9-1.9-17.5c-2.2-6-4.8-12-7.8-17.7c-6.3-11.8-13.1-23.4-19.6-35.1c-0.6-1-1.3-2-1.9-3
	c-5.7,11.1-10.9,22.2-16.9,32.9c-18.5,32.9-41.4,62-72,84.6c-21,15.5-44.2,26.2-69.9,31.2c-6.8,1.3-8.1-0.1-10.3-6.4
	c-1.8-5.2-4.8-10.4-8.4-14.6c-4.7-5.4-11.4-5.4-17.2-1.1c-5.8,4.2-9.1,10-9.1,17.1c-0.1,13.9,3.7,26.8,11,38.5
	c1.2,2,2.9,3.8,4.6,5.3c6.3,5.3,11.5,3.7,13.8-4.2c3,0,6.1,0,9.2,0c0.7,0,1.5,0.1,2.2,0.2c0.2,10.3-5.3,16.8-16,19
	c0.2,0.7,0.3,1.4,0.6,2c12.4,25,13.4,50.4,3.3,76.5c-8.3,21.7-18.8,42.2-32.9,61.3c-1.7-1.3-3.2-2.4-4.7-3.6
	c-1.5-1.1-2.9-2.3-4.6-3.7c0.8-1.2,1.5-2.3,2.3-3.4c14.2-20.1,25-41.7,32-65.3c5.8-19.7,2.6-38.5-6.3-56.4
	c-3.1-6.3-7.2-12.2-11.4-17.9c-8.3-11.2-12.3-24-14.4-37.5c-1-6.7-1.4-13.4,0.7-20c2.3-7.2,6.5-13.1,12.6-17.6
	c10.9-8,24.6-7,33.7,3.2c4.2,4.6,7.1,10.3,11.3,16.6c8.6-3,18.4-5.9,27.7-9.9c26.5-11.3,48.1-29.3,66.9-50.8
	c23.4-26.7,41.2-56.9,54.3-89.9c1.1-2.9,2.4-5.6,6-5.8c3.3-0.2,5.2,1.9,6.7,4.5c10.5,18.5,21.4,36.7,31.2,55.5
	c3.8,7.2,5.6,15.6,7.4,23.7c1.8,7.7-0.2,15.1-4.2,21.8c-1,1.6-1.9,3.3-2.9,4.8c-6.5,8.9-6.2,18.1-0.3,26.8
	c5.1,7.5,11.2,14.3,17.1,21.1c3.8,4.4,8.2,8.3,12.3,12.5c14.9,15.7,10.2,38.7-9.6,47.5c-1.5,0.7-2.8,2.6-3.4,4.2
	c-2,5.6-3.5,11.4-5.4,17c-0.7,2-0.7,3.5,0.8,5.4c3.5,4.2,3.3,8.9,0.8,13.6c-1.1,2.1-1.7,3.6,0.1,6c2.5,3.4,1.9,7.4-0.2,10.9
	c-1.4,2.5-3.1,4.8-4.7,7.2c-3.3,5-4.4,10-1.5,15.8c4.7,9.5,5.7,19.5,1.9,29.6c-5.2,13.8-15.7,20.3-29.9,21.5
	c-11.9,1-23.3-1.6-34.5-5c-18.4-5.6-36.6-11.7-55.4-17.8C281.4,411.5,278.1,422.8,274.8,434.4z M383.4,332.6c4.4,2.9,8,5.3,11.1,7.3
	c0.9-4.4,1.9-8.6,2.8-12.9C393,328.8,388.6,330.5,383.4,332.6z"/>
<path class="st0" d="M180.8,74.9c1.6,3.7,3.1,7.1,4.7,10.7c-1,0.6-1.9,1.1-2.9,1.6c-26.9,13.7-50.9,31.2-69,55.7
	c-10.6,14.3-18.1,30.1-20.2,47.9c-1.3,10.6,1.1,21.1,3.6,31.3c6.7,27.6,14.1,55.1,20.8,82.7c8.4,34.9,9.5,70.1,1.8,105.3
	c-1.9,8.6-5.3,17-8.2,26.1c-4.2-2.6-7.4-4.6-10.1-6.2c2.7-9.7,6-18.8,7.7-28.3c5.7-31,4.8-61.9-2.6-92.5
	c-6.2-25.3-13-50.5-19.2-75.8c-2.4-9.9-4.1-20-5.6-30c-2.3-15.7,2.2-30.3,8.5-44.4c10.9-24.5,28.4-43.8,49.7-59.4
	c11.1-8.1,23.3-14.8,35-22C176.7,76.6,178.7,75.9,180.8,74.9z"/>
<path class="st0" d="M271.7,302c-1.9,3.8-3.5,7.1-5.3,10.7c-3.7-1.8-7.2-3.6-11.5-5.7c4.6,14,10.6,26.1,22.2,34.7
	c9.4,6.9,20,11.5,30.8,15.6c18.7,7.1,37.4,14.1,56.1,21.2c0.7,0.3,1.3,0.6,2.4,1c-1.3,3.7-2.5,7.3-3.8,11.3
	c-10.1-3.7-20-7.1-29.7-10.9c-15.5-6.1-31-12.2-46.3-18.8c-20.6-8.8-34.3-24.2-41.5-45.3c-0.3-0.9-0.7-1.9-1-2.8
	c0-0.1-0.2-0.2-0.6-0.7c-1.7,3.1-3.2,6.1-5,9.5c-3.5-1.7-6.9-3.4-10.7-5.2c4.2-8.3,8.2-16.6,12.6-24.6c1.4-2.7,4.3-3.4,7.2-2
	C255.5,293.9,263.4,297.9,271.7,302z"/>
<path class="st0" d="M290.8,93.1c4-0.5,7.7-0.9,11.5-1.3c5.9,30.1-15.7,73.7-44.3,89.1c-2-3.2-4-6.4-6.2-9.9
	c13.2-8.5,23.4-19.4,30.2-33.4C288.6,123.5,291.4,108.8,290.8,93.1z"/>
<path class="st0" d="M227.6,151.2c-1.8-3.5-3.4-6.8-5.1-10.2c23-13.6,27.1-35.5,26.6-59.8c3.7-0.5,7.4-1,11.2-1.5
	C267.2,104.9,250.5,141.6,227.6,151.2z"/>
<path class="st0" d="M181.8,152.3c7.9-2,15.6-3.9,23.8-6c1,3.7,1.9,7.4,3,11.5c-7.9,2-15.6,3.9-23.8,6
	C183.7,159.9,182.8,156.2,181.8,152.3z"/>
<path class="st0" d="M405,268c-6,4.6-11.9,9.1-18,13.7c-2.8-3-5.4-5.8-8-8.6C386.7,263.8,397.9,261.2,405,268z"/>
</svg>
