<?xml version="1.0" encoding="utf-8"?>
<!-- Generator: Adobe Illustrator 28.0.0, SVG Export Plug-In . SVG Version: 6.00 Build 0)  -->
<svg version="1.1" id="Layer_1" xmlns="http://www.w3.org/2000/svg" xmlns:xlink="http://www.w3.org/1999/xlink" x="0px" y="0px"
	 viewBox="0 0 500 500" style="enable-background:new 0 0 500 500;" xml:space="preserve">
<style type="text/css">
	.st0{fill:#FFFFFF;stroke:#000000;stroke-miterlimit:10;}
</style>
<path class="st0" d="M58.4,98.3c0.3-0.6,0.6-1.1,0.8-1.7c2.4-7,7.3-11.3,14.6-12.3c7-1,12.7,2,16.8,7.7
	c10.1,14.1,20.1,28.2,30.1,42.4c4.2,5.9,8.2,12,12.7,17.6c2,2.5,4.8,4.8,7.7,6c17.8,7.5,35.7,14.6,53.6,21.9
	c0.9,0.4,1.9,0.7,2.7,1.2c2.7,1.6,3.8,3.9,2.7,6.9c-1.1,2.9-3.9,4.3-7,3.2c-6-2.2-11.8-4.7-17.7-7c-12.8-5.2-25.6-10.5-38.4-15.6
	c-5.4-2.1-9.6-5.5-13-10.2C110.3,139.1,96.6,120,83,100.8c-0.7-1-1.4-2.1-2.2-3c-2.2-2.4-4.8-3.2-7.7-1.6c-3,1.7-4.1,4.3-3,7.6
	c1.4,4,2.7,8,4.5,11.9c7.9,17.6,10.8,36.2,11.6,55.2c0.2,5.5,0.8,10.9,1.4,16.4c0.8,7.3,6.7,12.1,14.1,11.1c8.3-1,16.6-2,24.8-3.4
	c6.9-1.2,12,0.8,16.8,6.1c7.6,8.4,16.1,16,24.2,23.9c0.6,0.6,1.3,1.1,2,1.7c2.6,2.4,3,5.6,1.1,8c-2,2.6-5.5,3-8.3,0.5
	c-7.9-7.2-16.4-14-23.2-22.2c-5.3-6.3-10.4-7.9-17.9-6.1c-6.2,1.4-12.6,1.9-18.9,2.6c-13,1.5-24.7-8.2-26-21.3
	c-1.4-14.9-2.7-29.8-4.5-44.6c-0.5-4.4-2.2-8.7-3.7-12.9c-3.1-8.7-6.5-17.2-9.7-25.8C58.4,102.8,58.4,100.6,58.4,98.3z"/>
<path class="st0" d="M253.9,279.5c-5.5-1.5-10.7-3-15.9-4.5c-18.7-5.4-36.2-13.3-52.8-23.4c-3.8-2.3-4.9-5.3-3.2-8.3
	c1.8-3.1,5-3.7,8.8-1.3c21,13,43.8,21.4,67.7,27c1.2,0.3,3.2,0.1,3.8-0.6c9.4-12.3,18.5-24.7,28-37.5c-7.4-3-14.5-5.9-21.6-8.8
	c-1.6-0.7-3.3-1.2-4.8-2c-3-1.5-4.2-4.4-3.1-7.1c1.1-2.9,4.2-4.4,7.4-3.1c8.6,3.4,17.1,6.8,25.6,10.4c2.6,1.1,4.1,0.8,5.8-1.6
	c4.7-6.7,9.7-13.3,14.7-19.8c15.6-20.5,44.7-24,64.4-7.4c20.2,17.1,40,34.5,60,51.9c3.4,2.9,3.8,6.1,1.5,8.7
	c-2.3,2.7-5.5,2.6-8.9-0.4c-19.1-16.6-38.3-33.2-57.4-49.7c-13.2-11.4-29.5-13.1-42.6-3.9c-3.6,2.5-6.8,5.9-9.4,9.5
	C282.5,260.2,243,312.9,204,366c-7.9,10.7-18.5,16.8-29.7,22.6c-2.9,1.5-5.9,0.3-7.4-2.3c-1.5-2.7-0.7-5.7,2.2-7.4
	c3.8-2.3,8.1-4,11.7-6.6c4.2-3,8.7-6.1,11.8-10.1c20.3-26.7,40.2-53.7,60.2-80.6C253.1,280.9,253.4,280.4,253.9,279.5z"/>
<path class="st0" d="M176.9,434.9c-12.4,0.6-24.9,0.6-37.2,2c-9.1,1-18,4.1-27,6c-9.2,2-17.7-4.8-18-14.2
	c-0.2-5.8,2.3-10.5,7.4-13.4c14.9-8.3,29.9-16.4,44.9-24.6c3.4-1.8,6.5-1.1,8.1,1.7c1.7,2.9,0.6,6.2-2.9,8.1
	c-13.3,7.3-26.7,14.6-40,21.9c-1.2,0.7-2.4,1.4-3.6,2c-2.2,1.1-3.4,2.7-2.4,5.1c0.9,2.4,2.9,2.8,5.3,2.2c6.3-1.5,12.6-2.9,18.9-4.5
	c10.7-2.8,21.6-3.9,32.6-3.3c11.3,0.6,22.7,1.1,34,1.8c18.1,1.1,32.1-11.6,32.7-29.8c0.1-3.7,0.1-7.5,0.2-11.2
	c0.3-8.1,3.7-14.6,10.5-19.2c8.4-5.6,16.8-11.3,25.2-16.9c3.2-2.1,6.4-1.8,8.3,0.8c2,2.7,1.3,6.2-1.9,8.4
	c-7.5,5.2-14.9,10.5-22.7,15.1c-5.9,3.6-8.5,8.2-8.3,15.1c0.1,5.6,0,11.3-1.2,16.7c-4,19.1-20.5,32.2-40,32.2c-7.6,0-15.2,0-22.8,0
	C176.9,436.3,176.9,435.6,176.9,434.9z"/>
<path class="st0" d="M343.9,282.5c-6.7,8.9-13.3,17.5-19.8,26.1c-0.6,0.8-1.2,1.6-2,2.2c-2.3,1.9-4.8,2.1-7.1,0.2
	c-2.4-2-2.9-4.7-1.2-7.3c1.4-2.1,3.1-3.9,4.6-5.9c5.9-8.2,11.7-16.4,17.6-24.6c1.2-1.7,1.4-3.2,0.3-5c-1.3-2.1-2.2-4.4-3.2-6.7
	c-1.4-3.4-0.4-6.6,2.6-7.9c2.9-1.3,5.8-0.1,7.5,3.1c3.2,6.1,6.1,12.3,9.4,18.2c8.6,15.3,18.9,29.3,30.9,42.1
	c0.6,0.6,1.2,1.3,1.8,1.9c3,3.4,3.2,6.4,0.6,8.9c-2.5,2.4-6,2.1-8.8-1.3c-9.1-11.2-18-22.6-26.8-34
	C347.9,289.4,346.1,286,343.9,282.5z"/>
<path class="st0" d="M293.8,353.7c-3.1-0.1-5.4-1.6-6.6-4.5c-2.4-5.8-6.2-10.1-12.2-12.4c-2.9-1.2-4.3-3.7-4.3-6.8
	c0-3.2,1.5-5.6,4.3-6.9c5.7-2.5,9.8-6.5,12.5-12.2c2.7-5.7,10.3-5.8,13.2-0.2c3,5.7,7,9.8,12.8,12.5c2.9,1.3,4.3,3.8,4.3,6.9
	c-0.1,3.1-1.6,5.6-4.5,6.8c-5.9,2.4-9.9,6.5-12.4,12.2C299.7,352.2,297.3,353.7,293.8,353.7z M294.1,336.7c2.2-2.2,4.9-4.8,6.8-6.6
	c-2-2.1-4.5-4.8-6.7-7c-2.3,2.3-5,4.8-7.1,6.9C289.5,332.2,292.1,334.7,294.1,336.7z"/>
<path class="st0" d="M232.2,173.3c2.8,2.4,5.5,3.7,6.7,5.9c2.9,5.3,6.7,9.2,12.1,11.7c3.1,1.4,5,3.9,4.8,7.3c-0.1,3.4-2,5.8-5.2,7.1
	c-5.3,2.2-9.1,6-11.3,11.3c-1.4,3.3-3.8,5.2-7.5,5.1c-3.5-0.1-5.8-2.1-7.1-5.2c-2.2-5.3-5.8-9.2-11.2-11.4c-3-1.2-4.8-3.5-4.9-6.9
	c-0.1-3.5,1.6-5.9,4.7-7.3c5.5-2.4,9.3-6.3,12-11.7C226.6,177,229.4,175.7,232.2,173.3z M232.4,190.5c-2.5,2.8-4.9,5.5-7.1,8
	c2.1,1.9,4.8,4.3,7.1,6.4c2.2-2.1,4.9-4.7,7-6.8C237.1,195.7,234.8,193.1,232.4,190.5z"/>
<path class="st0" d="M181.2,297.3c0,4.9-1.6,7.3-4.6,8.6c-5.1,2.1-8.6,5.7-10.8,10.8c-1.3,3-3.8,4.7-7,4.6c-3.1-0.1-5.5-1.7-6.7-4.6
	c-2.1-5.1-5.5-8.8-10.6-10.9c-2.9-1.2-4.5-3.6-4.5-6.7c0-3.2,1.5-5.5,4.4-6.8c5.1-2.3,8.7-5.9,11.2-10.9c2.7-5.5,10-5.6,12.9-0.1
	c2.7,5.2,6.7,8.7,11.8,11.5C179.3,293.7,180.5,296.3,181.2,297.3z M159.1,304.7c1.7-1.8,3.9-4,5.6-5.8c-1.6-1.9-3.6-4.1-5.3-6.2
	c-2.2,2.4-4.2,4.5-6,6.5C155.1,300.9,157.1,302.8,159.1,304.7z"/>
<path class="st0" d="M437,362.6c0.1,5-4.7,8.2-8.2,5.8c-11.2-7.9-22.1-16.1-33-24.3c-2.5-1.9-2.5-4.8-0.6-7.4c1.8-2.4,5.1-3,7.7-1.1
	c10.7,7.7,21.3,15.5,31.8,23.5C435.8,360,436.5,361.8,437,362.6z"/>
</svg>
