<?xml version="1.0" encoding="utf-8"?>
<!-- Generator: Adobe Illustrator 28.0.0, SVG Export Plug-In . SVG Version: 6.00 Build 0)  -->
<svg version="1.1" id="Layer_1" xmlns="http://www.w3.org/2000/svg" xmlns:xlink="http://www.w3.org/1999/xlink" x="0px" y="0px"
	 viewBox="0 0 500 500" style="enable-background:new 0 0 500 500;" xml:space="preserve">
<style type="text/css">
	.st0{fill:#FFFFFF;stroke:#000000;stroke-miterlimit:10;}
</style>
<path class="st0" d="M212.1,433.1c-3.6-1.9-4.2-4.9-3.4-8.8c6.3-29.5,12.5-59.1,18.6-88.7c0.3-1.7-0.2-3.9-1.2-5.5
	c-7.9-13.2-18.9-23.7-30.9-33.1c-26.8-20.9-57-35.1-89.4-44.8c-0.6-0.2-1.2-0.3-2.4-0.5c-0.8,8-2.1,15.8-2.3,23.6
	c-0.4,15.8-0.3,31.6-0.4,47.4c0,1.2,0.1,2.5-0.2,3.7c-0.7,2.9-2.7,4.5-5.6,4.3c-2.9-0.2-4.8-1.9-5.1-4.9c-0.3-3.9-0.5-7.9-0.6-11.8
	c-0.6-28,0.3-55.8,7.4-83.1c2.3-8.9,6-17.4,9.2-26.1c0.6-1.6,1.2-2.8-0.5-4.5c-20.9-20.7-20.4-55.9,0.9-76c0.3-0.2,0.5-0.6,0.9-1.1
	c-0.9-1.1-1.8-2.2-2.7-3.3C86.2,97.2,96.8,62.1,124,54.9c2.8-0.7,5.8-1.1,8.8-1.2c3.2-0.1,5.5,2.3,5.6,5.2c0.1,3-1.9,5.5-5.1,5.7
	c-13.6,0.8-21.9,8.2-25.6,20.8c-3.7,12.8,0.8,24.7,11.9,33.2c4,3.1,3.9,7.5-0.3,9.9c-14.8,8.5-18.8,22.1-17.9,37.8
	c0.7,11.7,5.3,21.7,15.3,28.7c3,2,2.9,5.1,1.4,8c-1.4,2.8-0.5,4.3,2,5.9c17.7,11.1,37.2,17.6,57.5,21.6c40.3,8,80.4,7.6,120.5-1.8
	c0.7-0.2,1.4-0.3,2.2-0.4c3.6-0.6,6.1,0.8,6.9,3.9c0.8,3.2-0.8,5.9-4.5,6.8c-6,1.4-12,2.8-18.1,3.9c-41.2,6.9-82.1,5.9-122.6-4.6
	c-17.3-4.5-33.7-11-49.6-21.2c-2.4,7.9-4.7,15.4-7,23.1c50.1,15.9,95.7,38,128.3,80c5.7-6.4,11.1-13.2,17.4-19.3
	c23.2-22.5,50.9-38,80.6-50c8.7-3.5,17.7-6.2,26.5-9.2c1.1-0.4,2.3-0.8,4-1.4c-2.3-7.7-4.6-15.2-6.8-22.8
	c-7.1,3.6-13.7,7.1-20.3,10.5c-1.9,0.9-3.8,1.7-5.8,2.5c-4.1,1.6-7,0.7-8.5-2.5c-1.4-3.2,0.2-5.9,4.1-7.8
	c7.4-3.6,14.7-7.4,22.1-11.2c1.2-0.6,2.2-1.5,3.4-2.3c-2-5.9-4.2-11.7-5.8-17.6c-2.8-10.5-5.4-21-7.9-31.6c-0.5-2.2-1.3-2.8-3.4-2.8
	c-9.9,0.1-19.8,0-29.6,0.1c-1.2,0-2.9,1.1-3.6,2.2c-4.3,6.7-11.3,9.8-18.4,7.9c-7.4-2-12.1-8-12.4-16c-0.1-2.8,0-5.6,0-9
	c-1.7,0-3.2,0-4.6,0c-15.4,0-30.9,0.1-46.3,0c-11.1-0.1-18.5-8.6-16.8-19.1c1.1-6.7,6.5-12.2,13.2-13.2c1.8-0.3,3.7-0.3,5.5-0.3
	c14.7,0,29.4,0,44.1,0c1.5,0,2.9,0,4.8,0c0-2.9,0-5.5,0-8c0.1-8.7,4.5-14.8,12.2-17c7.4-2,14.1,1,18.8,8.3c0.6,0.9,1.8,1.8,2.8,1.8
	c8.5,0.1,17,0.1,26,0.1c0-1.5,0-2.8,0-4.1c0-9.4-0.1-18.8,0-28.1c0-4.3,2.4-6.8,5.8-6.5c3.3,0.2,5.2,2.7,5.2,6.8c0,10.5,0,20.9,0,32
	c3,0,5.7,0,8.3,0c6.7,0.1,11.8,2.9,15.3,8.8c0.6,1,2.2,1.9,3.4,1.9c5.7,0.2,11.4,0.1,17,0.1c11.7,0,15.7,3.1,18.4,14.8
	c4,0,8.2,0,12.3,0c16.7,0.1,28.4,11.7,28.4,28.5c0,60,0,120,0,180c0,17-11.6,28.5-28.6,28.6c-12.6,0-25.2,0-37.8,0.1
	c-0.2,0-0.5,0.1-1,0.3c-1,8.7-1.8,17.5-3,26.3c-2.1,15.1-4.5,30.3-7,45.3c-0.3,2.1-2.2,3.9-3.3,5.8c-1.5,0-3,0-4.4,0
	c-3-2.2-3.5-5.1-3-8.7c3.2-21.6,6.5-43.2,9-64.8c3.1-26.3,3.9-52.7,2.6-79.1c-0.5-9.6-1.6-19.1-2.5-28.9
	c-31.5,9.3-60.5,22.4-86.5,41.5c-13.6,10-26,21.2-35.4,35.4c-2.1,3.1-2.6,5.9-1.8,9.6c6.2,28.7,12.1,57.4,18.3,86.1
	c0.8,3.8,0.3,6.8-3,9c-1.2,0-2.5,0-3.7,0c-3-1.5-3.8-4.2-4.4-7.2c-4.5-21.6-9-43.2-13.6-64.8c-0.8,0.9-1.1,1.9-1.4,3
	c-4.4,20.7-8.7,41.5-13.3,62.2c-0.5,2.4-2.4,4.6-3.7,6.8C214.5,433.1,213.3,433.1,212.1,433.1z M347.5,155.1
	c2.9,15.7,7.1,30.5,12.4,45c4,10.9,8.6,21.6,11.4,32.8c7.8,30.8,7.6,62.3,6.4,93.8c-0.2,5.7-0.6,11.5-0.9,17.4c3.1,0,5.8,0,8.5,0
	c50.2,0.3,47.1,3.5,46.9-46.7c-0.2-49.5,0-99,0-148.5c0-1.4,0-2.7,0-4.1c-0.3-7.8-5.8-14.5-13.5-15.3c-5.3-0.6-10.8-0.1-16.1-0.1
	c-3,11.8-6.6,14.6-18.7,14.6c-5.6,0-11.1,0-16.7,0c-1,0-2.6,0.2-2.9,0.9C360.9,151.8,355.2,154.8,347.5,155.1z M302.2,103.7
	c0,13.6,0,26.6,0,39.6c0.5,0.2,0.9,0.4,1.2,0.4c15.2,0,30.3,0.1,45.5,0c3.7,0,5.4-2.1,5.4-6c0.1-9,0-18,0-27c0-5.4-1.6-7-7.1-7
	c-9.4,0-18.7,0-28.1,0C313.6,103.7,308.1,103.7,302.2,103.7z M280.4,123.7c0,3.3,0,6.7,0,10c0,4.9-0.1,9.9,0,14.8
	c0.1,3.7,2.1,5.9,5.2,6c3.2,0.1,5.1-2,5.3-5.8c0.1-1,0-2,0-3c0-13.7,0-27.4,0-41c0-2.3,0.1-4.7-0.1-7c-0.2-2.9-2-4.5-4.8-4.7
	c-2.9-0.2-4.6,1.4-5.3,4.1c-0.3,1.1-0.2,2.2-0.2,3.3C280.4,108.2,280.4,116,280.4,123.7z M269.1,118.9c-0.7-0.1-1.3-0.4-1.9-0.4
	c-16.3,0-32.6,0-48.8,0c-0.8,0-2,0-2.5,0.4c-1.3,1.2-2.9,2.6-3.2,4.1c-0.2,1.5,0.7,3.7,1.9,4.7c1.1,1,3.2,1.2,4.8,1.2
	c15.4,0.1,30.8,0.1,46.2,0c1.1,0,2.2-0.1,3.4-0.2C269.1,125.3,269.1,122.1,269.1,118.9z M365.6,132.9c7.6,0,15,0.1,22.3-0.2
	c1.1,0,2.8-2.1,2.9-3.3c0.4-3.8,0.4-7.6,0-11.4c-0.1-1.2-1.6-3.3-2.5-3.4c-7.6-0.3-15.1-0.2-22.8-0.2
	C365.6,120.8,365.6,126.6,365.6,132.9z"/>
<path class="st0" d="M105.4,433.1c-1.3-2.2-3.5-4.3-3.8-6.7c-3.6-24.8-6.9-49.5-10.1-74.3c-0.6-4.3,1.6-7,5-7.2
	c3.5-0.2,5.5,2.1,6,6.4c3.3,24.7,6.6,49.3,10.1,74c0.5,3.6-0.7,5.9-3.5,7.8C107.9,433.1,106.6,433.1,105.4,433.1z"/>
<path class="st0" d="M234,220.5c-5.3,0-9.4-2-12.5-5.9c-2-2.5-1.8-5.7,0.5-7.6c2.4-2,4.9-2,7.4,0c4.1,3.3,4.6,3.3,8.7,0
	c2.5-2,5-2,7.4,0c2.3,1.9,2.5,5.1,0.4,7.7C242.8,218.5,238.7,220.5,234,220.5z"/>
<path class="st0" d="M161.3,129.3c-4.2,0-6.9-2.1-6.9-5.5c-0.1-3.4,2.6-5.6,6.7-5.7c4.3,0,6.9,2,6.9,5.5
	C168.1,127,165.5,129.2,161.3,129.3z"/>
<path class="st0" d="M137,129.3c-4.2,0-6.7-2.2-6.7-5.7c0.1-3.5,2.6-5.5,6.9-5.4c4.2,0,6.8,2.2,6.7,5.7
	C143.8,127.2,141.2,129.3,137,129.3z"/>
<path class="st0" d="M185.3,118.1c4.3,0,6.8,2.1,6.8,5.5c0,3.5-2.6,5.6-6.8,5.6c-4.3,0-6.8-2-6.8-5.5
	C178.5,120.2,181,118.2,185.3,118.1z"/>
</svg>
