<?xml version="1.0" encoding="utf-8"?>
<!-- Generator: Adobe Illustrator 28.0.0, SVG Export Plug-In . SVG Version: 6.00 Build 0)  -->
<svg version="1.1" id="Layer_1" xmlns="http://www.w3.org/2000/svg" xmlns:xlink="http://www.w3.org/1999/xlink" x="0px" y="0px"
	 viewBox="0 0 500 500" style="enable-background:new 0 0 500 500;" xml:space="preserve">
<style type="text/css">
	.st0{fill:#FFFFFF;stroke:#000000;stroke-miterlimit:10;}
</style>
<path class="st0" d="M158.2,457c-6.1-1-12.4-1.4-18.3-3.2c-25.5-7.8-40.8-25-46.1-51.2c-5.6-27.6-11.4-55.1-16.9-82.7
	c-5.6-28.2-12.3-56.2-16.2-84.6c-5.1-37.3,3-72,28.1-101.2c36.7-42.6,97.6-50.7,144-18.5c41.4,28.7,62.3,69.1,62.9,119.5
	c0.3,21.3-7,40.6-19.5,57.7c-7.7,10.5-16.3,20.3-24.8,30.1c-16.4,19.1-24.4,41.1-25.3,66.3c-1.3,35.4-22.9,59.9-52.7,66
	c-0.7,0.1-1.3,0.5-1.9,0.7C167.1,456.3,162.6,456.7,158.2,457z M73.7,228.9c0.3,2.6,0.5,5.1,1,7.7c5.3,27.1,10.7,54.3,16.1,81.4
	c5.5,27.2,11.4,54.4,16.7,81.7c5.2,26.8,26.7,44.1,53.9,42.9c24.5-1.1,49.2-17.8,50.5-53.3c1.1-29.9,10.9-55.8,31-78
	c6.8-7.5,13.3-15.2,19.4-23.2c11.8-15.5,19.5-32.7,19.3-52.5c-0.3-44.8-18.6-80.9-55-107c-46-33.1-107-20.4-136.9,27.8
	C76,178.7,72,203.1,73.7,228.9z"/>
<path class="st0" d="M351.6,122c1.3-1.9,2.6-3.9,4.1-5.6c9.5-11.2,19-22.3,28.5-33.5c0.8-1,1.7-2,2.6-2.8c2.7-2.3,6.4-2.2,9,0.1
	c2.6,2.2,3.2,5.9,1.4,8.9c-0.7,1.1-1.5,2.1-2.4,3c-10.2,12-20.4,23.9-30.6,35.9c-0.8,0.9-1.6,1.9-2.9,3.6c5.4-0.4,10-0.8,14.6-1.2
	c1.6-0.1,3.3-0.3,4.9-0.3c4.1,0.2,6.9,3,7,6.9c0.1,3.7-2.4,6.6-6.4,7c-6.5,0.7-13.1,1.1-19.6,1.6c-5.3,0.4-10.5,0.9-15.8,1.2
	c-5.1,0.3-7.9-1.9-8.3-6.9c-1-11.7-1.9-23.4-2.8-35.1c-0.3-4.7,2.2-7.8,6.3-8.1c4.1-0.3,7.1,2.3,7.6,7c0.6,5.8,1,11.6,1.4,17.5
	C350.7,121.6,351.1,121.8,351.6,122z"/>
<path class="st0" d="M320.5,170.2c0.4,4.6-1.7,7.6-5.3,8.5c-3.2,0.8-6.9-0.8-8-4.2c-2.8-9.1-6.8-17.7-11.6-25.9
	c-1.9-3.2-0.6-7.1,2.4-9c2.9-1.9,6.9-1.7,8.9,1.2C313.5,150,317.9,160.1,320.5,170.2z"/>
<path class="st0" d="M245.9,95.8c0.4-5.5,5-9.4,9.5-7.6c11,4.3,19.8,11.5,26.1,21.5c2.1,3.3,0.9,7.3-2.2,9.3c-3.1,2-7.2,1.5-9.4-1.7
	c-5-7.2-11.6-12.4-19.4-16.3C248.6,100,247.4,97.6,245.9,95.8z"/>
<path class="st0" d="M332.6,220.9c-0.1,6.3,0,12.6-0.3,18.9c-0.2,4.9-3.3,7.8-7.5,7.6c-4.2-0.2-6.5-3.4-6.6-8.3
	c-0.3-8.4-0.7-16.8-1.4-25.2c-0.4-5.2,1.5-8.6,5.7-9.3c4.1-0.7,7.4,2.2,8.3,7.2c0.5,3,0.9,6,1.4,9
	C332.3,220.9,332.5,220.9,332.6,220.9z"/>
<path class="st0" d="M323.5,279.1c-0.5,2.2-0.5,3.6-1.1,4.7c-4.7,8.5-9.3,17-14.4,25.3c-2.6,4.2-6.9,4.7-10.3,2.1
	c-3.3-2.5-3.3-6.5-0.9-10.6c4.4-7.2,8.5-14.5,12.4-21.9c2.3-4.3,5.9-6.5,9.5-4.5C320.8,275.3,322.1,277.6,323.5,279.1z"/>
<path class="st0" d="M159.1,144.2c46.7-3,86.9,29.3,94.9,75.4c4,23-1.4,43-16.2,60.7c-4.4,5.3-9,10.5-13.7,15.6
	c-20.7,22.8-32.1,49.5-33.6,80.4c-0.3,5.4-0.9,10.8-2.1,16c-3.4,13.7-13.5,22.3-25.8,22.6c-13.1,0.3-25.6-8.5-29.2-21.6
	c-2.8-10-4.5-20.4-6.6-30.6c-1.8-8.8-3.5-17.7-5.3-26.6c-1.9-9.6,1.5-16.7,10.3-21.2c5.4-2.8,10.9-5.4,16.2-8.5
	c9.8-5.9,10.5-19.3,1.3-26c-1.9-1.4-4.4-2.2-6.7-2.8c-5.9-1.4-11.9-2.4-17.9-3.6c-9.6-2-15.8-7.5-18.7-17
	c-4.6-15.3-8.6-30.6-8.5-46.9C97.6,173.8,122.9,146.5,159.1,144.2z M241.2,231.2c-3.8-47.6-43.7-79.4-88.5-71.8
	c-15.8,2.7-28.1,10.9-35.3,25.6c-6,12.2-7,25.3-4.9,38.5c1.6,9.7,4.5,19.1,6.7,28.7c1.1,4.7,3.9,7.2,8.6,8.1
	c5.8,1.1,11.5,2.2,17.2,3.4c13.5,2.7,22.6,12.2,24.4,25.2c1.8,12.8-4.3,24.4-16.4,30.8c-4.9,2.6-9.7,5.1-14.7,7.5
	c-3,1.4-3.8,3.5-3.1,6.6c0.7,2.8,1.2,5.7,1.7,8.6c3.1,15,6,30.1,9.2,45.1c1.6,7.7,8.4,13.3,15.7,13.3c6.2,0,11.2-4.6,13-12.6
	c0.9-3.9,1.2-7.9,1.4-11.8c1.5-33.5,13.5-62.7,35.5-87.9c6.2-7.1,12.5-14,18.2-21.5C238.6,256,242.7,243.5,241.2,231.2z"/>
</svg>
