<?xml version="1.0" encoding="utf-8"?>
<!-- Generator: Adobe Illustrator 28.0.0, SVG Export Plug-In . SVG Version: 6.00 Build 0)  -->
<svg version="1.1" id="Layer_1" xmlns="http://www.w3.org/2000/svg" xmlns:xlink="http://www.w3.org/1999/xlink" x="0px" y="0px"
	 viewBox="0 0 500 500" style="enable-background:new 0 0 500 500;" xml:space="preserve">
<style type="text/css">
	.st0{fill:#FFFFFF;stroke:#000000;stroke-miterlimit:10;}
</style>
<path class="st0" d="M205.2,228.3c-13.6-13.5-27-26.9-40.4-40.3c-0.9-0.9-2.2-1.6-3.4-1.9c-21.7-5.2-35.1-19.4-42.7-39.6
	c-4.4-11.7-6.3-23.9-6-36.4c0.1-3.4,0.2-6.8,3.9-8.3c3.7-1.5,6.2,0.8,8.6,3.2c32.6,32.7,65.2,65.3,97.8,97.9c1.3,1.3,2.1,3,3,4.3
	c10.6-8.2,10.6-8.2,19.4,0.6c50.3,50.3,100.5,100.6,150.8,150.8c8.6,8.6,12.2,18.4,8.3,30.1c-6.3,19.2-30.5,25.1-45.2,10.9
	c-13.2-12.8-26-25.9-39-38.9C282,322.5,243.8,284.2,205.6,246C197.3,237.7,197.3,237.7,205.2,228.3z M253.6,276.6
	c0.7,0.7,1.5,1.7,2.5,2.7c36.7,36.7,73.4,73.5,110.2,110.2c0.7,0.7,1.5,1.5,2.3,2.2c4.8,3.9,11.8,4.6,17.2,1.8
	c5.6-2.9,9-8.9,7.5-15.3c-0.9-3.8-3.2-7.8-6-10.6c-36.4-36.7-72.9-73.1-109.4-109.7c-1-1-2.1-2-2.8-2.7
	C267.9,262.3,260.8,269.4,253.6,276.6z M217.8,216.3c-30.8-30.9-61.4-61.4-91.8-91.9c0.1-0.1-0.2,0.1-0.2,0.3c0.4,2.5,0.7,5,1.3,7.5
	c5,22.1,16.4,38.1,40.1,42.8c1.9,0.4,3.7,1.9,5.1,3.3c7.6,7.4,15,14.9,22.5,22.4c6.3,6.3,12.6,12.7,19.2,19.3
	C215.7,218.4,216.9,217.2,217.8,216.3z M236.3,216.4c-7.4,7.4-14.4,14.4-21.4,21.4c0.8,1,2,2.3,2.8,3.3c7.3-7.3,14.4-14.3,21.8-21.8
	C238.5,218.3,237.2,217.2,236.3,216.4z M230.7,253.8c7.4-7.5,14.4-14.5,21.5-21.5c-0.9-1-2-2.3-2.9-3.3
	c-7.4,7.4-14.4,14.4-21.8,21.8C228.5,251.7,229.7,252.9,230.7,253.8z M262.4,242.1c-7.6,7.6-14.6,14.6-21.6,21.6
	c0.9,1,2,2.3,2.6,2.9c7.3-7.4,14.3-14.6,21.4-21.7C264.2,244.2,263.2,243,262.4,242.1z"/>
<path class="st0" d="M115.5,245.2c-15.2,0.1-26-14.9-19.6-28.8c3.8-8.3,9.3-15.9,14.5-23.5c2.6-3.8,7.3-3.7,9.9,0
	c5.2,7.6,10.8,15.2,14.5,23.5C141,230.1,130.5,245.1,115.5,245.2z M116,207.1c-0.5,0-1,0-1.5,0c-2.6,4.7-5.4,9.2-7.7,14.1
	c-1.8,3.8-0.2,7.9,3.3,10.2c3.6,2.5,7.4,2.4,10.8-0.4c3.1-2.5,4.7-6,2.7-9.9C121.3,216.3,118.6,211.8,116,207.1z"/>
<path class="st0" d="M280.7,121.3c6.6,7.4,7.4,10.2,4.3,13.3c-3.2,3.1-5.7,2.3-13.2-4.3c-4.1,2.5-7.6,10.3-13.5,3.9
	c-5.1-5.5,1.4-8.8,4.4-12.7c-2.6-4.2-10.2-7.8-3.8-13.6c5.6-5.1,8.7,1.7,12.8,4.5c4.1-2.7,7.6-10.2,13.4-3.8
	C290.2,114,283.6,117.3,280.7,121.3z"/>
<path class="st0" d="M243.4,392.3c-4.8-0.7-11.3,1.5-11.7-6.3c-0.2-4.1,2.2-5.3,11.6-6.3c1-4.6-1.2-12.1,7-11.7
	c7,0.4,5.4,6.9,5.8,11.6c4.7,1.1,11.8-1.3,11.8,6.5c0,7.8-7,5.4-11.6,6.4c-0.8,4.9,1.1,11.5-6.8,11.9
	C245.6,404.5,244.3,401.8,243.4,392.3z"/>
<path class="st0" d="M341.9,171.5c4.8,1,11.8-1.2,11.8,6.4c0,7.6-6.9,5.6-11.8,6.4c-0.8,4.7,1.4,11.4-6.5,11.9
	c-4,0.2-5.3-2.4-6.1-12c-4.6-0.9-12.1,1.5-11.8-6.7c0.2-7.2,7-5.2,11.7-6c1.2-4.6-1.4-12.2,7-11.7
	C343.2,160.4,341.1,166.7,341.9,171.5z"/>
<path class="st0" d="M206.9,110.6c-3.3-0.1-6-2.8-5.9-6c0-3.3,2.7-5.9,6-5.9c3.6,0,6.3,2.7,6.1,6.2
	C213,108.1,210.3,110.6,206.9,110.6z"/>
<path class="st0" d="M366,269.8c-3.2-0.1-5.9-2.9-5.9-6.1c0-3.5,3-6.3,6.3-6.1c3.3,0.2,5.8,3,5.7,6.3
	C372,267.2,369.3,269.9,366,269.8z"/>
<path class="st0" d="M372.2,129c0,3.3-2.6,6-5.9,6.1c-3.3,0.1-6-2.5-6.1-5.8c-0.1-3.5,2.6-6.3,6.1-6.3
	C369.6,123.1,372.1,125.7,372.2,129z"/>
<path class="st0" d="M182.4,355.3c-3.3-0.1-5.9-2.8-5.9-6.1c0.1-3.5,3-6.1,6.5-5.9c3.3,0.2,5.9,3.1,5.7,6.3
	C188.5,352.9,185.7,355.4,182.4,355.3z"/>
<path class="st0" d="M298,297.7c0.1,3.3-2.9,6.3-6.2,6.2c-3.1-0.1-5.9-2.9-6-6c-0.1-3.2,2.6-6,5.8-6.2
	C294.9,291.5,297.9,294.3,298,297.7z"/>
<path class="st0" d="M309,309c3.4-0.1,6.3,2.7,6.3,6.1c0,3.2-2.7,5.9-5.9,6c-3.4,0.1-6.3-2.7-6.3-6.1
	C303.1,311.8,305.8,309.1,309,309z"/>
<path class="st0" d="M332.5,332.6c-0.1,3.4-2.7,5.8-6.1,5.8c-3.4,0-5.9-2.6-5.9-6c0-3.6,2.7-6.2,6.3-6
	C330.2,326.6,332.6,329.2,332.5,332.6z"/>
<path class="st0" d="M274.7,286.5c-3.4,0.1-6-2.4-6.1-5.8c-0.1-3.6,2.5-6.3,6.1-6.2c3.4,0.1,5.9,2.6,5.9,6
	C280.6,283.8,278.1,286.4,274.7,286.5z"/>
</svg>
